<svg width="375" height="812" viewBox="0 0 375 812" fill="none" xmlns="http://www.w3.org/2000/svg">
<g clip-path="url(#clip0)">
<rect width="375" height="812" fill="white"/>
<path d="M382 -16H-6V608H382V-16Z" fill="url(#paint0_linear)"/>
<path d="M530.911 278.833H-5.68488V607.73H530.911V278.833Z" fill="url(#paint1_linear)"/>
<path d="M533.098 434.845C533.098 434.845 410.239 408.688 402.412 411.471C394.585 414.254 381.062 412.18 374.659 408.96C368.256 405.733 336.017 399.344 323.668 397.219C311.319 395.087 296.101 386.566 285.92 381.601C275.739 376.628 267.912 370.948 261.509 370.948C255.106 370.948 255.907 368.816 248.745 370.948C241.583 373.08 207.835 405.025 187.351 406.449C166.861 407.873 163.054 408.459 148.588 412.781C134.121 417.102 100.673 426.331 84.3036 423.491C67.9338 420.651 13.1367 438.401 -38.1046 438.401C-89.3459 438.401 -144 455.444 -144 455.444L455.127 484.463L533.098 434.845Z" fill="#87A8BC"/>
<path d="M-113.328 426.918H-58.8715L-18.7374 423.288C-18.7374 423.288 10.8015 413.194 18.0072 411.178C25.2128 409.161 28.1755 406.328 37.9091 407.144C47.6347 407.951 54.5263 411.59 64.6947 414.01C74.863 416.431 83.6707 418.044 97.2849 419.667C110.899 421.28 114.9 426.936 122.114 426.936C129.32 426.936 140.535 431.804 158.955 432.804C177.376 433.803 186.224 436.92 198.196 437.58C210.167 438.24 263.183 448.343 263.183 448.343L391 464.496L-131 465L-113.328 426.918Z" fill="#799AAF"/>
<path d="M713.919 390.166C705.376 389.458 679.047 387.54 669.796 384.95C660.545 382.36 636.348 380.937 636.348 380.937C636.348 380.937 625.674 380.443 621.402 384.95C617.131 389.458 579.72 404.368 571.027 405.076C562.334 405.785 519.635 406.493 514.648 409.333C509.669 412.174 483.605 416.431 470.662 420.695C457.719 424.952 344.519 435.34 344.519 435.34L230.782 467.557L726.017 479.67L713.919 390.166Z" fill="#6F8A9C"/>
<path d="M585.664 457.037C585.664 457.037 559.85 450.354 552.381 447.135C544.912 443.915 533.028 442.448 526.066 442.534C519.105 442.62 504.996 447.092 498.772 446.684C492.948 446.305 484.198 441.397 470.568 442.062C464.065 442.377 453.125 449.496 441.993 450.139C430.86 450.783 429.408 453.86 417.388 451.864C405.361 449.86 401.741 448.294 391.503 448.093C381.264 447.893 359.529 447.635 353.54 451.527C347.559 455.427 313.66 465.808 304.681 465.264C295.695 464.713 288.626 464.806 274.503 463.325C260.387 461.844 252.918 458.854 242.701 457.874C232.477 456.893 221.759 453.409 210.648 455.691C199.537 457.981 196.289 457.688 185.207 462.145C174.124 466.602 163.056 472.047 151.945 474.186C140.834 476.318 135.725 476.053 129.293 481.112C122.861 486.17 116 493.947 116 493.947L691.402 486.599C691.402 486.599 659.307 481.133 649.526 478.364C639.746 475.588 640.125 469.278 630.359 467.418C620.586 465.551 617.817 466.645 609.897 464.391C601.97 462.138 593.22 457.638 585.664 457.037Z" fill="#3B6075"/>
<path d="M-95.5058 458.251C-95.5058 458.251 -72.5753 456.713 -68.3899 454.953C-64.1973 453.193 -57.1428 450.996 -52.5138 451.876C-47.8848 452.756 -45.2376 454.738 -35.9795 452.756C-26.7214 450.774 -20.547 446.825 -13.2708 446.16C-5.99454 445.494 -4.67093 441.652 2.16172 446.16C8.99438 450.667 24.8705 453.858 32.5903 453.858C40.3101 453.858 44.052 453.636 51.3282 453.858C58.6044 454.08 61.0298 457.6 70.0661 459.36C79.1024 461.12 83.9532 462.88 91.2294 460.898C98.5057 458.916 109.08 456.455 114.153 458C119.225 459.539 130.501 458.122 136.897 458.122C143.294 458.122 152.244 458.015 158.218 457.657C164.192 457.299 176.899 465.713 187.917 465.291C200.187 464.819 209.481 472.968 213.23 474.807C216.979 476.645 238.614 488.014 244.066 487.542C268.986 485.381 293.154 505.607 293.154 505.607H-105L-95.5058 458.251Z" fill="#29546B"/>
<path d="M243.406 485.385C243.406 485.385 269.37 475.111 282.892 472.063C296.414 469.022 294.49 458.483 316.547 458.483C338.612 458.483 338.762 464.128 350.153 463.477C361.543 462.826 368.139 459.535 379.515 461.274C390.891 463.012 395.878 466.926 414.38 466.926C432.881 466.926 443.556 467.799 455.654 466.926C467.753 466.053 473.012 464.014 484.616 461.338C496.221 458.662 502.624 456.058 514.723 456.058C526.821 456.058 543.191 454.319 551.018 452.581C558.845 450.842 572.081 449.104 587.528 449.54C602.975 449.977 625.791 446.499 637.51 445.19C649.229 443.888 652.199 449.626 665.435 451.708C678.678 453.79 677.698 454.949 692.637 456.151C707.583 457.36 709.715 455.378 725.376 456.151C741.03 456.924 763.095 468.564 775.194 467.305C787.292 466.046 800.814 466.575 806.509 467.398C812.204 468.221 857.6 511.986 857.6 511.986L192 507.128L243.406 485.385Z" fill="#1C4A64"/>
<path d="M-184.765 493.479C-184.765 493.479 -137.151 492.692 -119.651 489.537C-102.15 486.382 -70.7632 489.415 -60.0742 488.836C-49.3852 488.256 -49.8216 484.858 -27.4921 484.142C-5.16255 483.427 2.61452 487.433 18.8626 484.979C35.1107 482.518 59.2146 476.086 68.9878 477.109C78.7682 478.125 82.2811 480.658 98.15 483.269C114.019 485.881 120.551 487.619 127.741 489.802C134.932 491.984 140.562 494.667 157.755 495.017C174.948 495.368 209.483 501.535 222.082 502.072C234.681 502.601 241.643 503.388 254.857 501.685C268.072 499.983 264.581 497.715 278.897 497.092C293.213 496.47 291.26 496.291 306.85 493.257C322.44 490.224 326.31 487.262 341.943 487.519C357.576 487.77 387.625 497.572 387.625 497.572L421.116 531.806L-228 538.431L-184.765 493.479Z" fill="#2B4452"/>
<path d="M270.547 525.855C270.547 525.855 302.434 521.468 309.055 516.599C315.684 511.731 329.756 508.315 335.966 508.315C342.176 508.315 350.488 503.927 355.44 501.984C360.393 500.04 372.82 501.493 378.611 501.984C384.409 502.474 386.062 512.692 396.005 513.429C405.941 514.165 416.004 516.589 426.71 513.429C437.416 510.268 441.097 505.88 450.224 505.399C459.359 504.909 472.19 507.824 477.577 513.429C482.963 519.033 513.316 533.649 521.329 532.677C529.341 531.705 535.648 531.706 548.225 529.271C560.801 526.837 567.43 522.302 576.543 520.673C585.655 519.043 595.179 513.723 605.114 516.874C615.05 520.025 617.953 519.534 627.888 525.865C637.824 532.196 647.767 539.99 657.702 542.915C667.638 545.84 672.194 545.349 677.992 552.652C683.79 559.955 690 581 690 581H77C77 581 164.901 549.855 173.594 545.605C182.288 541.354 204.71 547.548 213.411 544.633C222.104 541.708 227.955 533.541 234.995 530.086C242.035 526.631 263.807 526.886 270.547 525.855Z" fill="#283E4A"/>
<path d="M216.449 524.848C216.449 524.848 192.395 517.842 185.433 514.472C178.47 511.103 167.39 509.56 160.907 509.642C154.424 509.724 141.29 514.361 135.491 513.921C130.066 513.511 121.908 508.39 109.208 509.061C103.151 509.381 92.9691 516.776 82.605 517.424C72.2408 518.073 70.8863 521.285 59.6851 519.183C48.4839 517.081 45.1052 515.441 35.5629 515.218C26.0205 514.994 5.77158 514.689 0.209015 518.736C-5.36116 522.784 -36.9103 533.547 -45.2808 532.966C-53.6512 532.377 -60.2411 532.459 -73.3904 530.901C-86.5472 529.336 -93.5023 526.205 -103.029 525.169C-112.557 524.133 -122.548 520.48 -132.889 522.843C-143.231 525.206 -146.267 524.901 -156.578 529.522C-166.896 534.144 -177.192 539.809 -187.541 542.008C-197.89 544.207 -202.646 543.923 -208.635 549.186C-214.616 554.448 -221 574 -221 574L315 567.299C315 567.299 285.095 550.088 275.978 547.181C266.862 544.274 267.205 537.699 258.104 535.739C249.003 533.778 246.423 534.911 239.042 532.548C231.653 530.193 223.495 525.489 216.449 524.848Z" fill="#25353E"/>
<path d="M584.42 477.71L526.568 495.897C526.568 495.897 522.318 502.271 520.901 504.969C519.485 507.666 509.096 515.736 509.096 515.736L493.185 521.203L482.696 532.628C482.696 532.628 472.744 542.795 470.855 542.795C468.966 542.795 433.379 548.218 433.379 548.218L412.638 561.061C412.638 561.061 381.494 564.66 379.441 565.597C377.387 566.541 290.494 590.087 287.912 590.087C285.329 590.087 224.436 624 224.436 624L600.854 617.876L584.42 477.71Z" fill="#06363F"/>
<path d="M-89.1744 466C-89.1744 466 -11.945 479.583 -6.4312 484.82C-0.917358 490.063 5.39265 501.118 20.3656 504.403C35.3385 507.687 83.4063 518.173 83.4063 518.173C83.4063 518.173 120.446 534.515 129.894 538.664C139.353 542.812 180.326 557.246 200.813 559.63C221.3 562.014 279.611 562.014 297.745 563.915C315.867 565.824 391.516 574.877 397.826 579.638C404.136 584.406 571.595 602.109 571.595 602.109L670 640L-179 636.622L-89.1744 466Z" fill="#262E33"/>
<path d="M-8 553C-8 553 52.5796 566.718 55.8993 571.949C59.219 577.188 63.0181 588.235 72.0329 591.516C81.0477 594.798 109.988 605.275 109.988 605.275C109.988 605.275 163.523 584.802 152 605.275C157.695 609.421 207.665 602.893 220 605.275C232.335 607.657 260.082 610.087 271 611.986C281.911 613.893 327.201 607.23 331 611.986C334.799 616.75 391 611.986 391 611.986V812H197.5H-8V553Z" fill="#262E33"/>
<path d="M374.039 551.688C374.039 551.688 391.224 556.553 402.278 545.027L401.305 554.7C401.305 554.7 378.639 560.56 374.039 551.688Z" fill="#06363F"/>
<path d="M375.649 529.316C375.649 529.316 374.261 552.232 373.374 555.974C372.486 559.716 371.327 573.017 371.327 573.017H377.058C377.058 573.017 375.627 558.113 375.763 554.107C375.899 550.1 375.763 540.141 375.763 540.141L375.649 529.316Z" fill="#262E33"/>
<path d="M375.52 531.384C375.52 531.384 374.654 529.531 373.831 528.601C373.831 528.608 375.62 529.831 375.52 531.384Z" fill="#262E33"/>
<path d="M375.141 527.277C375.141 527.277 374.182 528.83 375.52 531.384L375.663 530.604C375.663 530.611 374.998 528.679 375.141 527.277Z" fill="#262E33"/>
<path d="M372.379 529.331C372.379 529.331 374.175 531.634 375.677 531.935L375.52 532.836C375.52 532.843 372.966 532.944 372.379 529.331Z" fill="#262E33"/>
<path d="M372.937 533.194C372.937 533.194 374.246 533.817 375.448 532.493L375.52 534.124C375.52 534.124 374.168 534.768 372.937 533.194Z" fill="#262E33"/>
<path d="M372.043 533.094C372.043 533.094 373.352 534.997 375.52 534.525L375.255 535.398C375.255 535.398 371.864 536.07 372.043 533.094Z" fill="#262E33"/>
<path d="M372.036 536.306C372.036 536.306 373.789 537.151 375.255 535.398L375.234 536.9C375.234 536.9 373.767 538.489 372.036 536.306Z" fill="#262E33"/>
<path d="M372.765 536.492C372.765 536.492 373.338 539.232 375.148 540.155L375.012 540.957C375.012 540.957 370.047 540.985 372.765 536.492Z" fill="#262E33"/>
<path d="M375.234 538.052C375.234 538.052 372.909 539.683 370.376 538.302C370.376 538.302 370.691 541.758 375.248 539.433L375.234 538.052Z" fill="#262E33"/>
<path d="M369.074 539.755C369.074 539.755 370.505 541.536 375.048 540.699V542.13C375.055 542.137 369.281 543.768 369.074 539.755Z" fill="#262E33"/>
<path d="M372.937 541.908C372.937 541.908 374.618 544.963 375.57 544.663C375.57 544.663 375.52 546.244 374.461 546.194C373.402 546.144 372.501 544.09 372.937 541.908Z" fill="#262E33"/>
<path d="M370.841 541.908C370.841 541.908 372.257 544.133 374.862 542.18V543.532C374.862 543.539 371.055 545.392 370.841 541.908Z" fill="#262E33"/>
<path d="M368.666 544.57C368.666 544.57 370.619 546.652 374.626 544.098L374.862 546.201C374.862 546.201 369.846 547.897 368.666 544.57Z" fill="#262E33"/>
<path d="M365.804 545.758C365.804 545.758 371.828 549.628 374.733 546.173L374.626 549.106C374.626 549.106 367.235 550.601 365.804 545.758Z" fill="#262E33"/>
<path d="M382.71 546.094C382.71 546.094 381.916 550.658 375.57 547.532C375.57 547.532 374.39 550.401 375.57 551.581C375.57 551.581 383.247 552.511 382.71 546.094Z" fill="#262E33"/>
<path d="M369.617 549.321C369.617 549.321 371.792 551.825 374.425 551.166L374.068 552.962C374.06 552.962 369.46 553.9 369.617 549.321Z" fill="#262E33"/>
<path d="M374.196 549.507C374.196 549.507 369.718 552.833 364.802 551.632C364.802 551.632 367.95 555.76 374.547 551.889L374.196 549.507Z" fill="#262E33"/>
<path d="M374.103 552.776C374.103 552.776 368.823 557.019 362.177 554.636C362.177 554.636 368.544 560.095 374.103 555.617V552.776Z" fill="#262E33"/>
<path d="M359.458 559.022C359.458 559.022 368.051 561.455 373.574 555.688L373.087 560.524C373.095 560.532 361.762 563.458 359.458 559.022Z" fill="#262E33"/>
<path d="M373.044 560.782C373.044 560.782 368.387 564.517 364.173 562.535C364.173 562.535 366.849 567.021 373.173 564.617L373.044 560.782Z" fill="#262E33"/>
<path d="M374.733 561.906C374.733 561.906 375.942 564.81 380.285 563.608C380.285 563.608 378.854 567.465 375.255 565.461C371.656 563.458 374.733 561.906 374.733 561.906Z" fill="#262E33"/>
<path d="M374.64 530.346C374.382 530.089 374.175 529.753 373.839 529.602C373.853 529.774 373.924 529.939 374.039 530.075C373.932 530.032 373.831 529.989 373.724 529.946C373.753 530.103 373.882 530.232 374.017 530.311C374.161 530.389 374.325 530.432 374.483 530.468C374.325 530.482 374.168 530.468 374.017 530.432C374.225 530.568 374.44 530.683 374.654 530.79C374.561 530.797 374.468 530.819 374.382 530.854C374.518 530.947 374.683 531.012 374.855 531.026C374.84 531.062 374.797 531.062 374.762 531.076C374.726 531.09 374.69 531.126 374.711 531.155C374.719 531.169 374.74 531.169 374.754 531.176C374.905 531.205 375.692 531.398 375.463 530.997C375.384 530.862 375.205 530.783 375.076 530.697C374.919 530.59 374.769 530.475 374.64 530.346Z" fill="#262E33"/>
<path d="M372.343 530.661C372.443 530.876 372.594 531.076 372.773 531.233C372.665 531.233 372.565 531.219 372.465 531.183C372.651 531.57 373.08 531.784 373.495 531.92C373.223 531.963 372.944 531.956 372.672 531.899C373.002 532.164 373.409 532.321 373.831 532.35C373.703 532.4 373.567 532.435 373.424 532.435C373.653 532.521 373.889 532.571 374.132 532.586C374.089 532.621 374.039 532.657 373.996 532.7C374.139 532.729 374.289 532.743 374.44 532.75C374.654 532.75 374.912 532.693 374.983 532.493C375.033 532.364 374.983 532.214 374.89 532.114C374.797 532.006 374.676 531.942 374.554 531.87C374.196 531.67 373.839 531.42 373.459 531.262C373.266 531.183 373.073 531.119 372.887 531.019C372.765 530.947 372.415 530.79 372.343 530.661Z" fill="#262E33"/>
<path d="M372.315 535.133C372.551 535.233 372.801 535.276 373.059 535.276C372.951 535.333 372.851 535.398 372.751 535.455C373.002 535.455 373.245 535.462 373.495 535.462C373.438 535.505 373.374 535.548 373.316 535.591C373.495 535.591 373.681 535.598 373.86 535.598C373.724 535.705 373.574 535.798 373.424 535.877C373.76 535.87 374.089 535.798 374.39 535.655C374.289 535.763 374.196 535.877 374.111 535.999C374.425 535.906 374.69 535.677 374.833 535.383C374.855 535.34 374.869 535.29 374.84 535.255C374.826 535.233 374.797 535.226 374.769 535.219C374.339 535.083 373.889 534.983 373.438 534.925C373.059 534.883 372.68 535.054 372.315 535.133Z" fill="#262E33"/>
<path d="M373.424 537.623C373.667 537.558 373.903 537.444 374.103 537.294C374.075 537.43 374.025 537.558 373.96 537.68C373.996 537.709 374.039 537.687 374.075 537.666C374.268 537.551 374.447 537.422 374.611 537.272C374.526 537.472 374.44 537.673 374.354 537.866C374.669 537.694 374.883 537.351 374.905 537C374.905 536.979 374.905 536.957 374.898 536.943C374.883 536.914 374.84 536.907 374.805 536.9C374.547 536.872 374.261 536.85 374.039 537C373.939 537.065 373.789 537.136 373.71 537.222C373.624 537.308 373.552 537.587 373.424 537.623Z" fill="#262E33"/>
<path d="M371.878 536.893C371.935 537.236 372.107 537.558 372.358 537.794C372.193 537.801 372.036 537.801 371.871 537.787C371.907 537.937 371.978 538.073 372.086 538.181C371.971 538.188 371.85 538.173 371.735 538.145C371.857 538.274 371.95 538.424 372.007 538.581C371.95 538.517 371.828 538.588 371.828 538.674C371.828 538.76 371.893 538.832 371.964 538.882C372.079 538.968 372.222 539.039 372.365 539.054C372.408 539.061 372.458 539.054 372.493 539.032C372.565 538.996 372.579 538.91 372.594 538.832C372.651 538.503 372.701 538.174 372.758 537.837C372.808 537.551 372.708 537.487 372.493 537.315C372.293 537.165 372.086 537.022 371.878 536.893Z" fill="#262E33"/>
<path d="M369.989 538.968C370.283 539.204 370.655 539.34 371.034 539.354C370.855 539.404 370.662 539.426 370.476 539.426C370.755 539.576 371.07 539.662 371.377 539.74C371.156 539.776 370.941 539.819 370.719 539.855C371.091 539.926 371.47 539.977 371.857 539.991C371.893 539.905 371.857 539.805 371.814 539.719C371.671 539.426 371.42 539.182 371.127 539.039C370.941 538.946 370.819 539.004 370.626 539.018C370.419 539.039 370.197 539.018 369.989 538.968Z" fill="#262E33"/>
<path d="M368.559 540.949C368.78 541.135 369.074 541.2 369.36 541.264C369.532 541.3 369.703 541.336 369.875 541.372C369.66 541.465 369.417 541.508 369.181 541.5C369.532 541.608 369.889 541.701 370.247 541.772C370.061 541.851 369.875 541.93 369.689 542.001C370.025 542.037 370.376 542.001 370.698 541.901C370.59 542.044 370.455 542.173 370.304 542.273C370.748 542.337 371.199 542.187 371.628 542.044C371.485 542.173 371.349 542.309 371.227 542.459C371.571 542.466 371.907 542.402 372.222 542.266C372.2 542.33 372.179 542.395 372.172 542.459C372.329 542.359 372.422 542.173 372.415 541.987C372.415 541.965 372.408 541.937 372.401 541.922C372.379 541.894 372.343 541.88 372.308 541.865C371.8 541.722 371.292 541.558 370.798 541.372C370.548 541.279 370.304 541.186 370.061 541.078C369.832 540.978 369.725 540.957 369.467 540.964C369.317 540.971 369.16 540.971 369.009 540.964C368.909 540.971 368.623 541.007 368.559 540.949Z" fill="#262E33"/>
<path d="M370.991 543.311C370.784 543.261 370.598 543.168 370.412 543.067C370.605 543.354 370.97 543.475 371.313 543.568C371.17 543.583 371.027 543.618 370.891 543.668C371.12 543.747 371.363 543.79 371.606 543.79C371.449 543.862 371.299 543.926 371.141 543.997C371.32 543.997 371.499 543.997 371.685 544.005C371.606 544.04 371.549 544.098 371.513 544.176C371.778 544.198 372.043 544.176 372.3 544.112C372.179 544.162 372.079 544.262 372.036 544.384C372.286 544.391 372.544 544.319 372.751 544.176C372.844 544.112 372.937 544.026 372.937 543.912C372.937 543.819 372.866 543.733 372.78 543.69C372.694 543.647 372.601 543.625 372.508 543.604C372.229 543.54 371.993 543.425 371.75 543.296C371.606 543.225 371.571 543.275 371.413 543.311C371.27 543.346 371.127 543.339 370.991 543.311Z" fill="#262E33"/>
<path d="M369.553 545.722C369.374 545.793 369.188 545.843 369.002 545.865C369.489 545.908 369.982 545.929 370.476 545.915C370.197 545.994 369.918 546.065 369.639 546.144C369.925 546.165 370.211 546.172 370.497 546.172C370.311 546.265 370.133 546.358 369.947 546.452C370.276 546.502 370.612 546.487 370.927 546.409C370.683 546.516 370.44 546.616 370.204 546.723C370.769 546.773 371.32 546.587 371.857 546.401C371.685 546.566 371.513 546.731 371.342 546.895C371.714 546.788 372.071 546.623 372.401 546.409C372.3 546.602 372.2 546.795 372.1 546.988C372.529 546.795 372.916 546.523 373.238 546.187C373.173 546.401 373.095 546.616 373.002 546.824C373.338 546.773 373.638 546.552 373.796 546.258C373.817 546.223 373.831 546.18 373.824 546.144C373.817 546.065 373.731 546.022 373.66 545.994C373.03 545.765 372.336 545.843 371.671 545.893C371.134 545.936 370.576 545.958 370.061 545.786C369.861 545.722 369.71 545.607 369.524 545.521C369.317 545.428 369.045 545.45 368.823 545.457C369.024 545.593 369.303 545.672 369.553 545.722Z" fill="#262E33"/>
<path d="M366.598 547.811C367.314 547.961 368.036 548.061 368.759 548.118C368.33 548.276 367.843 548.154 367.407 548.276C367.993 548.619 368.737 548.476 369.417 548.548C368.988 548.734 368.537 548.877 368.079 548.963C368.852 548.977 369.625 548.991 370.39 548.934C370.161 549.049 369.925 549.156 369.696 549.27C370.269 549.32 370.848 549.227 371.377 549.006C371.17 549.134 370.984 549.292 370.812 549.463C371.32 549.378 371.807 549.213 372.265 548.977C372.086 549.249 371.907 549.521 371.728 549.785C372.293 549.692 372.758 549.328 373.202 548.977C373.08 549.213 372.966 549.456 372.844 549.692C373.102 549.549 373.345 549.37 373.56 549.17C373.552 549.299 373.545 549.421 373.538 549.549C373.767 549.385 373.924 549.127 373.967 548.848C373.975 548.805 373.975 548.762 373.96 548.727C373.932 548.655 373.839 548.634 373.767 548.619C373.073 548.49 372.358 548.598 371.649 548.562C370.941 548.526 370.254 548.362 369.582 548.154C369.231 548.047 368.888 547.932 368.544 547.825C368.279 547.739 367.965 547.589 367.686 547.646C367.321 547.711 366.963 547.761 366.598 547.811Z" fill="#262E33"/>
<path d="M369.031 549.678C369.317 550.022 369.617 550.372 370.039 550.522C369.725 550.573 369.396 550.551 369.088 550.465C369.381 550.73 369.718 550.945 370.082 551.095C369.775 551.116 369.46 551.109 369.152 551.059C369.517 551.574 370.147 551.903 370.784 551.91C370.812 551.91 370.834 551.91 370.855 551.896C370.891 551.875 370.891 551.832 370.891 551.789C370.898 551.309 370.683 550.83 370.326 550.508C370.168 550.372 370.011 550.201 369.825 550.093C369.596 549.979 369.195 549.886 369.031 549.678Z" fill="#262E33"/>
<path d="M366.205 552.497C365.89 552.554 365.575 552.612 365.253 552.676C365.747 552.762 366.255 552.791 366.756 552.755C366.541 552.926 366.291 553.055 366.026 553.134C366.398 553.191 366.791 553.141 367.142 552.991C366.899 553.12 366.641 553.227 366.376 553.313C366.906 553.341 367.457 553.37 367.958 553.184C367.779 553.327 367.578 553.449 367.371 553.542C367.636 553.492 367.893 553.42 368.136 553.327C368.029 553.413 367.922 553.506 367.814 553.592C368.165 553.578 368.501 553.413 368.723 553.148C368.601 553.392 368.408 553.606 368.172 553.742C368.308 553.799 368.458 553.735 368.594 553.671C368.745 553.592 368.902 553.52 369.052 553.442C368.995 553.585 368.902 553.721 368.795 553.842C368.916 553.814 369.031 553.771 369.138 553.713C369.095 553.821 369.024 553.921 368.931 554C369.109 554.035 369.288 553.964 369.453 553.885C369.811 553.713 370.14 553.492 370.44 553.234C370.34 553.42 370.24 553.606 370.147 553.799C370.376 553.706 370.583 553.556 370.741 553.37C370.705 553.506 370.669 553.642 370.633 553.778C370.712 553.792 370.784 553.721 370.834 553.656C370.97 553.485 371.084 553.299 371.184 553.105C371.263 553.163 371.263 553.27 371.27 553.37C371.277 553.463 371.313 553.578 371.413 553.592C371.521 553.606 371.585 553.485 371.621 553.384C371.685 553.198 371.735 553.005 371.778 552.819C370.54 552.554 369.267 552.433 367.993 552.461C367.679 552.469 367.364 552.483 367.049 552.461C366.899 552.447 366.734 552.39 366.584 552.39C366.469 552.397 366.341 552.476 366.205 552.497Z" fill="#262E33"/>
<path d="M362.999 555.523C363.3 555.674 363.615 555.788 363.937 555.86C363.815 555.853 363.686 555.881 363.579 555.931C363.887 556.017 364.194 556.081 364.516 556.124C364.409 556.175 364.294 556.225 364.187 556.275C364.437 556.346 364.695 556.375 364.953 556.368C364.845 556.446 364.724 556.511 364.602 556.554C364.845 556.561 365.096 556.561 365.339 556.568C365.296 556.582 365.26 556.611 365.246 556.654C365.296 556.661 365.346 556.661 365.389 556.668C365.475 556.761 365.611 556.804 365.74 556.79C365.718 556.854 365.675 556.919 365.618 556.962C366.133 557.012 366.655 557.026 367.171 556.997C367.013 557.083 366.856 557.169 366.698 557.248C367.206 557.233 367.714 557.183 368.215 557.097C367.915 557.255 367.636 557.434 367.371 557.641C368.015 557.627 368.652 557.455 369.217 557.155C369.188 557.262 369.167 557.362 369.138 557.469C369.295 557.419 369.46 557.369 369.617 557.312C369.76 557.362 369.925 557.319 370.025 557.212C370.054 557.262 370.047 557.326 370.011 557.362C370.397 557.248 370.805 557.19 371.213 557.205C371.17 557.305 371.113 557.405 371.048 557.491C371.334 557.362 371.628 557.233 371.871 557.033C372.114 556.833 372.308 556.554 372.329 556.246C372.336 556.096 372.308 555.938 372.207 555.831C372.086 555.702 371.9 555.659 371.728 555.638C370.669 555.495 369.603 555.774 368.544 555.817C367.106 555.881 365.682 555.516 364.244 555.588C363.829 555.616 363.407 555.588 362.999 555.523Z" fill="#262E33"/>
<path d="M360.109 560.181C360.445 560.296 360.803 560.338 361.153 560.317C360.96 560.353 360.767 560.396 360.581 560.431C360.774 560.439 360.975 560.439 361.168 560.446C361.053 560.46 360.946 560.539 360.903 560.646C361.483 560.675 362.062 560.675 362.634 560.653C362.227 560.939 361.783 561.161 361.311 561.319C362.37 561.347 363.436 561.218 364.452 560.925C364.216 561.111 364.001 561.326 363.808 561.562C364.108 561.512 364.402 561.447 364.688 561.369C364.631 561.483 364.566 561.605 364.509 561.719C364.595 561.719 364.681 561.698 364.759 561.662C364.745 561.712 364.731 561.762 364.716 561.812C365.167 561.691 365.618 561.562 366.069 561.433C366.448 561.326 366.849 561.197 367.099 560.897C366.777 561.233 366.484 561.605 366.24 561.998C366.741 561.812 367.213 561.555 367.643 561.24C367.578 561.483 367.521 561.734 367.457 561.977C368.186 561.54 368.909 561.083 369.61 560.603C369.496 560.861 369.388 561.111 369.274 561.369C369.403 561.211 369.56 561.068 369.732 560.961C369.682 561.104 369.639 561.254 369.589 561.397C369.66 561.404 369.725 561.404 369.796 561.412C369.768 561.533 369.71 561.648 369.625 561.741C370.268 561.426 370.683 560.803 371.07 560.217C371.12 560.145 371.163 560.059 371.127 559.981C371.084 559.902 370.977 559.895 370.891 559.888C369.66 559.873 368.43 559.859 367.199 559.845C366.498 559.838 365.804 559.83 365.103 559.823C364.43 559.816 363.758 559.809 363.085 559.83C362.413 559.852 361.704 559.873 361.053 560.016C360.932 560.045 360.832 560.102 360.71 560.124C360.502 560.167 360.302 560.174 360.109 560.181Z" fill="#262E33"/>
<path d="M364.266 563.637C364.788 563.637 365.303 563.637 365.825 563.637C365.453 563.708 365.081 563.773 364.702 563.83C365.124 563.83 365.539 563.837 365.961 563.837C365.825 563.945 365.668 564.038 365.503 564.095C365.732 564.116 365.961 564.109 366.183 564.059C366.004 564.109 365.833 564.195 365.675 564.302C365.711 564.295 365.747 564.281 365.783 564.274C365.654 564.417 365.525 564.56 365.396 564.703C365.904 564.46 366.455 564.309 367.02 564.252C366.863 564.36 366.727 564.481 366.598 564.617C366.92 564.581 367.235 564.531 367.55 564.445C367.428 564.546 367.299 564.653 367.178 564.753C367.392 564.753 367.6 564.76 367.814 564.76C367.693 564.839 367.593 564.946 367.514 565.068C368.022 565.011 368.523 564.918 369.009 564.774C368.809 565.096 368.473 565.333 368.093 565.418C368.451 565.468 368.823 565.39 369.138 565.211C369.081 565.325 369.009 565.426 368.916 565.519C369.095 565.49 369.267 565.44 369.431 565.368C369.353 565.461 369.274 565.562 369.202 565.655C369.353 565.569 369.503 565.49 369.653 565.404C369.589 565.49 369.546 565.583 369.517 565.69C369.653 565.561 369.854 565.547 370.04 565.526C370.297 565.49 370.547 565.418 370.776 565.304C370.791 565.375 370.769 565.461 370.719 565.519C370.962 565.468 371.184 565.354 371.37 565.197C371.377 565.232 371.392 565.261 371.399 565.297C371.513 565.282 371.614 565.225 371.692 565.147C371.699 565.275 371.699 565.404 371.707 565.533C371.728 565.504 371.749 565.476 371.771 565.447C371.771 565.526 371.8 565.604 371.857 565.669C372 565.375 372.136 565.075 372.257 564.774C372.272 564.746 372.279 564.717 372.272 564.689C372.265 564.66 372.236 564.631 372.207 564.617C372.036 564.503 371.828 564.453 371.621 564.402C371.134 564.295 370.633 564.224 370.133 564.195C369.811 564.174 369.496 564.174 369.174 564.138C368.909 564.109 368.644 564.059 368.387 564.009C368.072 563.952 367.75 563.887 367.435 563.83C367.006 563.751 366.57 563.666 366.155 563.522C365.847 563.415 365.589 563.315 365.275 563.444C365.003 563.551 364.573 563.637 364.266 563.637Z" fill="#262E33"/>
<path d="M354.371 538.867C354.371 538.867 352.983 561.784 352.096 565.526C351.208 569.267 350.049 582.568 350.049 582.568H355.78C355.78 582.568 354.349 567.665 354.485 563.658C354.621 559.652 354.485 549.692 354.485 549.692L354.371 538.867Z" fill="#262E33"/>
<path d="M354.242 540.935C354.242 540.935 353.376 539.082 352.554 538.152C352.554 538.152 354.342 539.383 354.242 540.935Z" fill="#262E33"/>
<path d="M353.863 536.828C353.863 536.828 352.904 538.381 354.242 540.935L354.385 540.155C354.385 540.162 353.72 538.231 353.863 536.828Z" fill="#262E33"/>
<path d="M355.008 538.152C355.008 538.152 354.772 539.497 354.242 539.705L354.235 540.935C354.242 540.935 355.215 539.211 355.008 538.152Z" fill="#262E33"/>
<path d="M355.88 538.431C355.88 538.431 355.508 540.191 354.392 540.649L354.249 541.736C354.242 541.736 355.88 540.584 355.88 538.431Z" fill="#262E33"/>
<path d="M351.094 538.882C351.094 538.882 352.89 541.186 354.392 541.486L354.235 542.388C354.242 542.388 351.688 542.488 351.094 538.882Z" fill="#262E33"/>
<path d="M358.005 541.264C358.005 541.264 355.551 542.867 354.378 541.644L354.407 543.246C354.399 543.239 357.233 545.049 358.005 541.264Z" fill="#262E33"/>
<path d="M351.659 542.738C351.659 542.738 352.968 543.36 354.17 542.037L354.242 543.668C354.242 543.675 352.89 544.319 351.659 542.738Z" fill="#262E33"/>
<path d="M357.798 545.02C357.798 545.02 355.644 545.958 354.242 543.668L354.371 545.206C354.371 545.214 355.981 546.773 357.798 545.02Z" fill="#262E33"/>
<path d="M350.765 542.638C350.765 542.638 352.074 544.541 354.242 544.069L353.977 544.949C353.977 544.949 350.586 545.621 350.765 542.638Z" fill="#262E33"/>
<path d="M350.758 545.85C350.758 545.85 352.511 546.695 353.977 544.942L353.956 546.444C353.956 546.451 352.489 548.04 350.758 545.85Z" fill="#262E33"/>
<path d="M357.798 545.299C357.798 545.299 355.086 547.481 354.242 546.151L354.249 547.854C354.242 547.854 358.206 547.753 357.798 545.299Z" fill="#262E33"/>
<path d="M356.875 548.125C356.875 548.125 354.657 548.104 354.242 547.374L354.235 548.376C354.242 548.376 355.959 549.106 356.875 548.125Z" fill="#262E33"/>
<path d="M351.488 546.043C351.488 546.043 352.06 548.784 353.87 549.707L353.734 550.508C353.734 550.508 348.769 550.537 351.488 546.043Z" fill="#262E33"/>
<path d="M353.956 547.603C353.956 547.603 351.631 549.235 349.098 547.854C349.098 547.854 349.413 551.309 353.97 548.984L353.956 547.603Z" fill="#262E33"/>
<path d="M358.921 546.752C358.921 546.752 357.669 549.306 354.371 548.855L354.242 549.886C354.242 549.886 359.637 551.46 358.921 546.752Z" fill="#262E33"/>
<path d="M347.796 549.306C347.796 549.306 349.227 551.088 353.77 550.251V551.681C353.777 551.689 348.003 553.313 347.796 549.306Z" fill="#262E33"/>
<path d="M358.385 550.658C358.385 550.658 356.739 552.204 354.292 549.499V550.959C354.292 550.959 357.462 553.37 358.385 550.658Z" fill="#262E33"/>
<path d="M360.817 551.138C360.817 551.138 357.462 553.069 354.113 550.73L354.242 552.268C354.242 552.261 358.9 556.024 360.817 551.138Z" fill="#262E33"/>
<path d="M351.659 551.46C351.659 551.46 353.341 554.515 354.292 554.214C354.292 554.214 354.242 555.795 353.183 555.745C352.124 555.695 351.223 553.642 351.659 551.46Z" fill="#262E33"/>
<path d="M359.229 554.822C359.229 554.822 357.354 556.604 354.292 553.821L353.977 555.752C353.977 555.745 357.082 558.628 359.229 554.822Z" fill="#262E33"/>
<path d="M349.563 551.46C349.563 551.46 350.98 553.685 353.584 551.732V553.084C353.584 553.091 349.778 554.944 349.563 551.46Z" fill="#262E33"/>
<path d="M347.388 554.114C347.388 554.114 349.341 556.196 353.348 553.642L353.584 555.745C353.584 555.745 348.568 557.448 347.388 554.114Z" fill="#262E33"/>
<path d="M344.526 555.302C344.526 555.302 350.55 559.172 353.455 555.716L353.348 558.65C353.348 558.65 345.957 560.152 344.526 555.302Z" fill="#262E33"/>
<path d="M361.432 555.645C361.432 555.645 360.638 560.21 354.292 557.083C354.292 557.083 353.112 559.952 354.292 561.133C354.292 561.133 361.969 562.063 361.432 555.645Z" fill="#262E33"/>
<path d="M348.332 558.872C348.332 558.872 350.507 561.376 353.14 560.717L352.782 562.513C352.782 562.513 348.182 563.451 348.332 558.872Z" fill="#262E33"/>
<path d="M352.918 559.051C352.918 559.051 348.44 562.377 343.524 561.175C343.524 561.175 346.672 565.304 353.269 561.433L352.918 559.051Z" fill="#262E33"/>
<path d="M353.977 559.301C353.977 559.301 358.234 562.885 362.556 561.383C362.556 561.383 360.166 565.504 353.863 561.755L353.977 559.301Z" fill="#262E33"/>
<path d="M352.818 562.327C352.818 562.327 347.538 566.57 340.892 564.188C340.892 564.188 347.259 569.647 352.818 565.168V562.327Z" fill="#262E33"/>
<path d="M353.863 561.912C353.863 561.912 357.233 565.869 360.023 563.544C360.023 563.544 358.292 568.251 353.977 565.747L353.863 561.912Z" fill="#262E33"/>
<path d="M364.244 565.297C364.244 565.297 359.973 566.334 353.77 563.336L353.87 566.355C353.863 566.348 360.889 568.752 364.244 565.297Z" fill="#262E33"/>
<path d="M338.18 568.573C338.18 568.573 346.773 571.006 352.296 565.239L351.809 570.076C351.817 570.076 340.484 573.009 338.18 568.573Z" fill="#262E33"/>
<path d="M367.335 570.505C367.335 570.505 359.772 571.485 353.977 566.098V569.854C353.977 569.854 362.935 575.342 367.335 570.505Z" fill="#262E33"/>
<path d="M351.759 570.333C351.759 570.333 347.102 574.068 342.888 572.086C342.888 572.086 345.563 576.572 351.888 574.168L351.759 570.333Z" fill="#262E33"/>
<path d="M353.455 571.457C353.455 571.457 354.664 574.362 359.007 573.16C359.007 573.16 357.576 577.016 353.977 575.013C350.378 573.009 353.455 571.457 353.455 571.457Z" fill="#262E33"/>
<path d="M353.362 539.898C353.105 539.64 352.897 539.304 352.561 539.154C352.575 539.325 352.647 539.49 352.761 539.626C352.654 539.583 352.554 539.54 352.446 539.497C352.475 539.654 352.604 539.783 352.74 539.862C352.883 539.941 353.047 539.983 353.205 540.019C353.047 540.034 352.89 540.019 352.74 539.984C352.947 540.119 353.162 540.234 353.376 540.341C353.283 540.348 353.19 540.37 353.105 540.398C353.24 540.491 353.405 540.556 353.577 540.57C353.562 540.606 353.519 540.606 353.484 540.62C353.448 540.635 353.412 540.67 353.434 540.699C353.441 540.713 353.462 540.713 353.477 540.72C353.627 540.749 354.414 540.942 354.185 540.542C354.106 540.406 353.927 540.327 353.798 540.241C353.641 540.141 353.491 540.026 353.362 539.898Z" fill="#262E33"/>
<path d="M356.16 539.003C356.038 539.318 355.909 539.626 355.773 539.934C355.888 539.891 356.002 539.841 356.117 539.783C355.945 539.969 355.766 540.155 355.573 540.32C355.723 540.334 355.873 540.341 356.024 540.334C355.83 540.456 355.637 540.585 355.451 540.713C355.544 540.721 355.644 540.728 355.737 540.735C355.609 540.814 355.473 540.892 355.337 540.957C355.415 540.978 355.494 541.007 355.573 541.028C355.365 541.121 355.144 541.193 354.915 541.236C355.029 541.257 355.144 541.279 355.258 541.293C355 541.407 354.714 541.443 354.442 541.4C354.707 540.942 354.972 540.391 355.337 540.005C355.644 539.676 355.988 539.447 356.16 539.003Z" fill="#262E33"/>
<path d="M358.449 542.366C357.977 542.567 357.469 542.695 356.954 542.745C357.082 542.931 357.29 543.067 357.512 543.11C357.354 543.139 357.19 543.146 357.032 543.146C357.104 543.218 357.175 543.296 357.247 543.368C357.032 543.375 356.818 543.368 356.603 543.346C356.675 543.511 356.796 543.654 356.939 543.754C356.803 543.783 356.66 543.733 356.524 543.69C356.345 543.633 356.174 543.575 355.995 543.511C356.031 543.647 356.074 543.79 356.109 543.926C355.916 543.861 355.73 543.768 355.551 543.661C355.651 543.804 355.752 543.947 355.852 544.083C355.63 544.069 355.422 543.954 355.265 543.804C355.108 543.647 354.993 543.461 354.886 543.268C355.33 543.289 355.809 543.261 356.159 543.003C356.431 542.803 356.624 542.416 356.989 542.38C357.462 542.345 357.962 542.373 358.449 542.366Z" fill="#262E33"/>
<path d="M351.065 540.212C351.166 540.427 351.316 540.627 351.495 540.785C351.387 540.785 351.287 540.77 351.187 540.735C351.373 541.121 351.802 541.336 352.217 541.472C351.945 541.515 351.666 541.507 351.395 541.45C351.724 541.715 352.131 541.872 352.554 541.901C352.425 541.951 352.289 541.987 352.146 541.987C352.375 542.073 352.611 542.123 352.854 542.137C352.811 542.173 352.761 542.209 352.718 542.251C352.861 542.28 353.011 542.294 353.162 542.302C353.376 542.302 353.634 542.244 353.705 542.044C353.756 541.915 353.705 541.765 353.612 541.665C353.519 541.557 353.398 541.493 353.276 541.422C352.918 541.221 352.561 540.971 352.182 540.813C351.988 540.735 351.795 540.67 351.609 540.57C351.488 540.491 351.137 540.341 351.065 540.212Z" fill="#262E33"/>
<path d="M351.037 544.684C351.273 544.784 351.523 544.827 351.781 544.827C351.681 544.885 351.573 544.949 351.473 545.006C351.724 545.006 351.967 545.013 352.217 545.013C352.16 545.056 352.096 545.099 352.038 545.142C352.217 545.142 352.403 545.149 352.582 545.149C352.446 545.257 352.296 545.35 352.146 545.428C352.482 545.421 352.811 545.35 353.112 545.207C353.011 545.314 352.919 545.428 352.833 545.55C353.147 545.457 353.412 545.228 353.555 544.935C353.577 544.892 353.591 544.842 353.562 544.806C353.548 544.784 353.519 544.777 353.491 544.77C353.062 544.634 352.611 544.534 352.16 544.477C351.781 544.434 351.402 544.606 351.037 544.684Z" fill="#262E33"/>
<path d="M355.179 546.237C355.179 546.215 355.172 546.201 355.172 546.179C355.186 546.194 355.194 546.201 355.208 546.215C355.186 546.122 355.172 546.029 355.151 545.943C355.237 545.95 355.294 546.022 355.365 546.072C355.444 546.136 355.544 546.172 355.652 546.172C355.616 546.108 355.573 546.051 355.523 546.001C355.709 546.022 355.895 546.036 356.088 546.058C356.031 546.029 355.981 545.993 355.938 545.958C356.059 545.958 356.181 545.958 356.31 545.958C356.317 545.9 356.252 545.872 356.202 545.843C355.995 545.75 355.78 545.657 355.566 545.571C355.394 545.5 355.165 545.357 354.979 545.364C354.478 545.392 355.144 546.058 355.179 546.237Z" fill="#262E33"/>
<path d="M352.139 547.167C352.382 547.103 352.618 546.988 352.818 546.838C352.79 546.974 352.74 547.103 352.675 547.224C352.711 547.253 352.754 547.231 352.79 547.21C352.983 547.095 353.162 546.967 353.326 546.816C353.24 547.017 353.155 547.217 353.069 547.41C353.383 547.238 353.598 546.895 353.62 546.544C353.62 546.523 353.62 546.502 353.612 546.487C353.598 546.459 353.555 546.451 353.519 546.444C353.262 546.416 352.976 546.394 352.754 546.544C352.654 546.609 352.503 546.68 352.425 546.766C352.346 546.859 352.275 547.138 352.139 547.167Z" fill="#262E33"/>
<path d="M357.998 546.094C357.977 546.258 357.848 546.401 357.691 546.451C357.834 546.451 357.977 546.459 358.12 546.459C357.919 546.559 357.712 546.645 357.497 546.716C357.676 546.723 357.862 546.731 358.041 546.738C357.848 546.909 357.605 547.024 357.354 547.06C357.49 547.067 357.626 547.074 357.762 547.081C357.54 547.296 357.197 547.31 356.889 547.31C356.975 547.353 357.061 547.382 357.161 547.382C356.954 547.417 356.739 547.432 356.532 547.432C356.66 547.518 356.796 547.582 356.939 547.632C356.667 547.632 356.396 547.639 356.117 547.639C356.231 547.696 356.338 547.761 356.453 547.818C356.159 547.825 355.866 547.832 355.566 547.818C355.465 547.818 355.358 547.811 355.265 547.768C355.172 547.725 355.093 547.646 355.086 547.546C355.086 547.482 355.115 547.417 355.158 547.36C355.387 547.031 355.816 546.931 356.202 546.802C356.524 546.695 356.853 546.552 357.133 546.358C357.397 546.194 357.705 546.215 357.998 546.094Z" fill="#262E33"/>
<path d="M359.272 547.117C359.222 547.396 359.136 547.66 359.021 547.918C359.129 547.875 359.229 547.811 359.308 547.732C359.343 547.732 359.329 547.789 359.308 547.811C359.193 547.932 359.071 548.047 358.95 548.161C359.129 548.097 359.3 548.018 359.472 547.939C359.329 548.19 359.114 548.405 358.85 548.533C359.036 548.519 359.222 548.49 359.408 548.455C359.265 548.519 359.114 548.591 358.971 548.655C359.293 548.655 359.615 548.655 359.944 548.662C359.579 548.827 359.2 548.955 358.814 549.048C359.071 549.048 359.336 549.048 359.594 549.056C359.329 549.149 359.05 549.192 358.771 549.199C359.057 549.256 359.35 549.277 359.637 549.27C359.265 549.463 358.842 549.506 358.42 549.556C358.635 549.578 358.85 549.599 359.064 549.621C359.014 549.678 358.928 549.685 358.85 549.685C358.52 549.7 358.184 549.707 357.855 549.721C358.034 549.821 358.227 549.893 358.42 549.95C358.141 549.95 357.862 549.95 357.59 549.95C357.698 550.007 357.812 550.064 357.92 550.114C357.576 550.122 357.233 550.122 356.896 550.129C357.004 550.193 357.111 550.25 357.211 550.315C356.989 550.336 356.768 550.329 356.546 550.301C356.646 550.322 356.746 550.372 356.825 550.451C356.589 550.472 356.353 550.422 356.145 550.315C356.195 550.308 356.245 550.336 356.274 550.379C356.152 550.429 356.016 550.379 355.902 550.322C355.709 550.229 355.523 550.122 355.351 549.993C355.408 549.921 355.501 549.893 355.587 549.864C355.995 549.735 356.403 549.585 356.789 549.406C357.204 549.22 357.605 549.006 357.948 548.712C358.206 548.498 358.435 548.24 358.592 547.947C358.671 547.811 358.707 547.689 358.814 547.575C358.978 547.424 359.121 547.267 359.272 547.117Z" fill="#262E33"/>
<path d="M350.593 546.444C350.65 546.788 350.822 547.11 351.073 547.346C350.908 547.353 350.751 547.353 350.586 547.339C350.622 547.489 350.693 547.625 350.801 547.732C350.686 547.739 350.565 547.725 350.45 547.696C350.572 547.825 350.665 547.975 350.722 548.133C350.665 548.068 350.543 548.14 350.543 548.226C350.543 548.312 350.608 548.383 350.679 548.433C350.794 548.519 350.937 548.591 351.08 548.605C351.123 548.612 351.173 548.605 351.208 548.584C351.28 548.548 351.294 548.462 351.309 548.383C351.366 548.054 351.416 547.725 351.473 547.389C351.523 547.103 351.423 547.038 351.208 546.866C351.015 546.716 350.808 546.573 350.593 546.444Z" fill="#262E33"/>
<path d="M348.712 548.512C349.005 548.748 349.377 548.884 349.756 548.898C349.577 548.948 349.384 548.97 349.198 548.97C349.477 549.12 349.792 549.206 350.1 549.284C349.885 549.32 349.663 549.363 349.441 549.399C349.813 549.47 350.193 549.521 350.579 549.535C350.615 549.449 350.579 549.349 350.536 549.263C350.393 548.97 350.142 548.726 349.849 548.583C349.663 548.49 349.542 548.547 349.348 548.562C349.141 548.583 348.919 548.569 348.712 548.512Z" fill="#262E33"/>
<path d="M347.281 550.501C347.502 550.687 347.796 550.751 348.082 550.816C348.254 550.851 348.425 550.887 348.597 550.923C348.382 551.016 348.139 551.059 347.903 551.052C348.254 551.159 348.611 551.252 348.969 551.324C348.783 551.402 348.597 551.481 348.411 551.552C348.747 551.588 349.098 551.552 349.42 551.452C349.313 551.595 349.177 551.724 349.026 551.824C349.47 551.889 349.921 551.738 350.35 551.595C350.207 551.724 350.071 551.86 349.949 552.01C350.293 552.017 350.629 551.953 350.944 551.817C350.922 551.882 350.901 551.946 350.894 552.01C351.051 551.91 351.144 551.724 351.137 551.538C351.137 551.517 351.13 551.488 351.123 551.474C351.101 551.445 351.065 551.431 351.03 551.417C350.522 551.273 350.014 551.109 349.52 550.923C349.27 550.83 349.019 550.737 348.783 550.63C348.554 550.529 348.447 550.508 348.189 550.515C348.039 550.522 347.882 550.522 347.731 550.515C347.631 550.522 347.345 550.551 347.281 550.501Z" fill="#262E33"/>
<path d="M349.713 552.862C349.506 552.812 349.32 552.719 349.134 552.619C349.327 552.905 349.692 553.026 350.035 553.119C349.892 553.134 349.749 553.17 349.613 553.22C349.842 553.298 350.085 553.341 350.328 553.341C350.171 553.413 350.021 553.477 349.863 553.549C350.042 553.549 350.221 553.549 350.407 553.556C350.328 553.592 350.271 553.649 350.235 553.728C350.5 553.749 350.765 553.728 351.022 553.663C350.901 553.713 350.808 553.813 350.758 553.935C351.008 553.942 351.266 553.871 351.473 553.728C351.566 553.663 351.659 553.577 351.659 553.463C351.659 553.37 351.588 553.284 351.502 553.241C351.416 553.198 351.323 553.177 351.23 553.155C350.951 553.091 350.715 552.976 350.472 552.848C350.328 552.776 350.293 552.826 350.135 552.862C349.992 552.898 349.849 552.891 349.713 552.862Z" fill="#262E33"/>
<path d="M348.268 555.266C348.089 555.337 347.903 555.388 347.717 555.409C348.203 555.452 348.697 555.473 349.191 555.459C348.912 555.538 348.633 555.609 348.354 555.688C348.64 555.71 348.926 555.717 349.212 555.717C349.026 555.81 348.847 555.903 348.661 555.996C348.991 556.046 349.327 556.031 349.642 555.953C349.398 556.06 349.155 556.16 348.919 556.268C349.484 556.318 350.035 556.132 350.572 555.946C350.4 556.11 350.228 556.275 350.057 556.439C350.429 556.332 350.786 556.167 351.115 555.953C351.015 556.146 350.915 556.339 350.815 556.532C351.244 556.339 351.631 556.067 351.952 555.731C351.888 555.946 351.809 556.16 351.716 556.368C352.053 556.318 352.353 556.096 352.511 555.803C352.532 555.767 352.546 555.724 352.539 555.688C352.532 555.609 352.446 555.566 352.375 555.538C351.745 555.309 351.051 555.388 350.386 555.438C349.849 555.481 349.291 555.502 348.776 555.33C348.576 555.266 348.425 555.151 348.239 555.066C348.032 554.973 347.76 554.994 347.538 555.001C347.746 555.144 348.017 555.223 348.268 555.266Z" fill="#262E33"/>
<path d="M355.694 556.976C355.687 556.89 355.666 556.811 355.637 556.733C356.038 557.069 356.589 557.155 357.111 557.219C356.961 557.162 356.832 557.069 356.725 556.954C357.154 556.976 357.583 556.997 358.013 556.962C357.805 556.904 357.598 556.84 357.39 556.783C357.855 556.718 358.306 556.554 358.699 556.296C358.542 556.296 358.385 556.289 358.234 556.289C358.563 556.196 358.871 556.039 359.143 555.831C359.057 555.817 358.964 555.817 358.878 555.845C359.071 555.688 359.272 555.531 359.379 555.309C359.05 555.609 358.656 555.838 358.227 555.981C357.934 556.082 357.619 556.132 357.311 556.175C356.882 556.239 356.446 556.282 356.009 556.289C355.802 556.296 355.587 556.289 355.38 556.253C355.237 556.232 354.936 556.082 354.814 556.124C354.879 556.475 355.394 556.826 355.694 556.976Z" fill="#262E33"/>
<path d="M345.32 557.362C346.036 557.512 346.758 557.612 347.481 557.67C347.052 557.827 346.565 557.705 346.129 557.827C346.715 558.171 347.46 558.027 348.139 558.099C347.71 558.285 347.259 558.428 346.801 558.514C347.574 558.528 348.347 558.543 349.112 558.485C348.883 558.6 348.647 558.707 348.418 558.822C348.991 558.872 349.57 558.779 350.092 558.557C349.885 558.686 349.699 558.843 349.527 559.015C350.035 558.929 350.522 558.764 350.98 558.528C350.801 558.8 350.622 559.072 350.443 559.337C351.008 559.244 351.473 558.886 351.917 558.528C351.795 558.764 351.681 559.008 351.559 559.244C351.817 559.101 352.06 558.922 352.275 558.721C352.267 558.85 352.26 558.972 352.253 559.101C352.482 558.936 352.639 558.678 352.682 558.399C352.69 558.357 352.69 558.314 352.675 558.278C352.647 558.206 352.561 558.185 352.482 558.171C351.788 558.042 351.073 558.149 350.364 558.113C349.656 558.078 348.969 557.913 348.297 557.705C347.946 557.598 347.603 557.484 347.259 557.376C346.994 557.29 346.68 557.14 346.401 557.197C346.043 557.262 345.685 557.312 345.32 557.362Z" fill="#262E33"/>
<path d="M347.753 559.229C348.039 559.573 348.34 559.924 348.762 560.074C348.447 560.124 348.118 560.102 347.81 560.017C348.103 560.281 348.44 560.496 348.805 560.646C348.497 560.668 348.182 560.66 347.874 560.61C348.239 561.125 348.869 561.455 349.513 561.462C349.541 561.462 349.563 561.462 349.584 561.447C349.62 561.426 349.62 561.383 349.62 561.34C349.627 560.861 349.413 560.381 349.055 560.059C348.898 559.923 348.74 559.752 348.554 559.644C348.318 559.53 347.917 559.43 347.753 559.229Z" fill="#262E33"/>
<path d="M344.927 562.048C344.612 562.106 344.297 562.163 343.975 562.227C344.469 562.313 344.977 562.342 345.478 562.306C345.263 562.478 345.013 562.607 344.748 562.685C345.12 562.742 345.513 562.692 345.864 562.542C345.621 562.671 345.363 562.778 345.098 562.864C345.628 562.893 346.179 562.921 346.68 562.735C346.501 562.878 346.3 563 346.093 563.093C346.358 563.043 346.615 562.971 346.858 562.878C346.751 562.964 346.644 563.057 346.537 563.143C346.887 563.129 347.223 562.964 347.445 562.7C347.323 562.943 347.13 563.157 346.894 563.293C347.03 563.351 347.18 563.286 347.316 563.222C347.467 563.143 347.624 563.072 347.774 562.993C347.717 563.136 347.624 563.272 347.517 563.394C347.638 563.365 347.753 563.322 347.86 563.265C347.817 563.372 347.746 563.472 347.653 563.551C347.832 563.587 348.01 563.515 348.175 563.436C348.533 563.265 348.862 563.043 349.162 562.785C349.062 562.971 348.962 563.157 348.869 563.351C349.098 563.258 349.305 563.107 349.463 562.921C349.427 563.057 349.391 563.193 349.355 563.329C349.434 563.343 349.506 563.272 349.556 563.208C349.692 563.036 349.806 562.85 349.906 562.657C349.985 562.714 349.985 562.821 349.992 562.921C349.999 563.014 350.035 563.129 350.135 563.143C350.243 563.157 350.307 563.036 350.343 562.936C350.407 562.75 350.457 562.556 350.5 562.37C349.262 562.106 347.989 561.984 346.715 562.013C346.401 562.02 346.086 562.034 345.771 562.013C345.621 561.998 345.456 561.941 345.306 561.941C345.191 561.948 345.056 562.027 344.927 562.048Z" fill="#262E33"/>
<path d="M361.833 556.732C361.869 556.847 361.797 556.961 361.726 557.054C361.604 557.226 361.475 557.398 361.354 557.57C361.504 557.555 361.647 557.519 361.783 557.455C361.654 557.605 361.518 557.756 361.368 557.891C361.504 557.927 361.654 557.913 361.783 557.856C361.576 557.97 361.382 558.106 361.211 558.271C361.325 558.271 361.44 558.271 361.547 558.278C361.254 558.557 360.939 558.807 360.595 559.036C360.796 559.036 360.996 559.008 361.189 558.95C360.81 559.315 360.345 559.601 359.844 559.78C360.08 559.823 360.323 559.845 360.567 559.838C360.252 560.052 359.873 560.145 359.501 560.231C359.744 560.245 359.98 560.252 360.223 560.267C359.937 560.346 359.644 560.403 359.35 560.439C359.529 560.446 359.701 560.453 359.88 560.453C359.558 560.567 359.236 560.682 358.914 560.803C359.036 560.811 359.164 560.825 359.293 560.832C358.785 561.061 358.199 561.047 357.64 561.025C357.562 561.018 357.476 561.018 357.412 560.975C357.347 560.932 357.304 560.839 357.347 560.775C357.369 560.739 357.404 560.718 357.44 560.703C357.891 560.467 358.385 560.281 358.771 559.952C358.957 559.795 359.114 559.609 359.265 559.415C359.601 559.008 359.944 558.593 360.281 558.185C360.452 557.977 360.624 557.77 360.796 557.562C360.924 557.405 361.068 557.348 361.246 557.24C361.461 557.09 361.661 556.926 361.833 556.732Z" fill="#262E33"/>
<path d="M354.929 561.977C354.993 562.335 355.122 562.678 355.308 562.993C355.351 562.885 355.365 562.764 355.344 562.649C355.451 562.914 355.651 563.143 355.902 563.293C355.859 563.1 355.823 562.907 355.78 562.707C355.873 562.9 356.009 563.072 356.181 563.2C356.21 563.05 356.217 562.9 356.202 562.742C356.288 562.9 356.367 563.057 356.453 563.222C356.51 563.072 356.56 562.914 356.617 562.764C356.811 563.057 357.075 563.308 357.383 563.479C357.397 563.401 357.39 563.315 357.369 563.243C357.569 563.458 357.827 563.63 358.098 563.744C357.941 563.551 357.819 563.329 357.748 563.093C358.041 563.272 358.334 563.451 358.628 563.63C358.592 563.501 358.549 563.372 358.513 563.243C358.592 563.265 358.671 563.293 358.742 563.329C358.757 563.265 358.742 563.193 358.699 563.136C358.95 563.25 359.193 563.372 359.443 563.486C359.429 563.372 359.422 563.258 359.408 563.15C359.558 563.193 359.701 563.236 359.851 563.286C359.83 563.2 359.787 563.122 359.722 563.064C360.252 563.25 360.81 563.365 361.375 563.393C361.246 563.329 361.118 563.258 360.989 563.193C361.282 563.186 361.568 563.15 361.855 563.079C361.647 563.05 361.425 563.021 361.246 562.9C361.762 562.928 362.284 562.778 362.706 562.485C362.456 562.513 362.205 562.521 361.955 562.513C362.048 562.463 362.148 562.42 362.241 562.37C362.162 562.356 362.084 562.349 362.005 562.363C362.148 562.285 362.284 562.184 362.405 562.07C362.27 562.091 362.141 562.127 362.012 562.177C362.219 562.063 362.391 561.891 362.506 561.691C361.783 562.127 360.975 562.42 360.137 562.571C359.887 562.614 359.629 562.642 359.372 562.657C358.9 562.678 358.435 562.628 357.962 562.578C357.34 562.513 356.703 562.449 356.124 562.213C355.78 562.07 355.451 561.87 355.079 561.855" fill="#262E33"/>
<path d="M341.722 565.075C342.022 565.225 342.337 565.339 342.659 565.411C342.537 565.404 342.408 565.432 342.301 565.483C342.609 565.568 342.916 565.633 343.238 565.676C343.131 565.726 343.017 565.776 342.909 565.826C343.16 565.897 343.417 565.926 343.675 565.919C343.567 565.998 343.446 566.062 343.324 566.105C343.567 566.112 343.818 566.112 344.061 566.119C344.018 566.134 343.982 566.162 343.968 566.205C344.018 566.212 344.068 566.212 344.111 566.219C344.197 566.312 344.333 566.355 344.462 566.341C344.44 566.405 344.397 566.47 344.34 566.513C344.855 566.563 345.378 566.577 345.893 566.549C345.735 566.634 345.578 566.72 345.42 566.799C345.928 566.785 346.436 566.735 346.937 566.649C346.637 566.806 346.358 566.985 346.093 567.192C346.737 567.178 347.374 567.006 347.939 566.706C347.91 566.813 347.889 566.913 347.86 567.021C348.018 566.971 348.182 566.921 348.34 566.863C348.483 566.913 348.647 566.871 348.747 566.763C348.776 566.813 348.769 566.878 348.733 566.913C349.119 566.799 349.527 566.742 349.935 566.756C349.892 566.856 349.835 566.956 349.77 567.042C350.057 566.913 350.35 566.785 350.593 566.584C350.837 566.384 351.03 566.105 351.051 565.797C351.065 565.647 351.03 565.49 350.93 565.382C350.808 565.254 350.622 565.211 350.45 565.189C349.391 565.046 348.325 565.325 347.266 565.368C345.828 565.432 344.404 565.068 342.966 565.139C342.551 565.168 342.129 565.139 341.722 565.075Z" fill="#262E33"/>
<path d="M338.824 569.732C339.16 569.847 339.518 569.89 339.868 569.868C339.675 569.904 339.482 569.947 339.296 569.983C339.489 569.99 339.69 569.99 339.883 569.997C339.768 570.011 339.661 570.09 339.618 570.197C340.198 570.226 340.777 570.233 341.349 570.205C340.942 570.491 340.498 570.713 340.026 570.87C341.085 570.899 342.151 570.77 343.167 570.476C342.931 570.662 342.716 570.877 342.523 571.113C342.823 571.063 343.117 570.999 343.403 570.92C343.346 571.034 343.281 571.156 343.224 571.271C343.31 571.271 343.396 571.249 343.474 571.213C343.46 571.263 343.446 571.313 343.431 571.364C343.882 571.242 344.333 571.12 344.784 570.984C345.163 570.877 345.564 570.748 345.814 570.448C345.492 570.784 345.199 571.156 344.955 571.55C345.456 571.364 345.928 571.106 346.358 570.791C346.293 571.034 346.236 571.285 346.172 571.528C346.901 571.092 347.624 570.634 348.325 570.154C348.211 570.412 348.103 570.662 347.989 570.92C348.118 570.763 348.275 570.619 348.447 570.512C348.397 570.655 348.354 570.806 348.304 570.949C348.375 570.956 348.44 570.956 348.511 570.963C348.483 571.085 348.425 571.199 348.339 571.292C348.976 570.977 349.398 570.355 349.785 569.768C349.835 569.697 349.878 569.611 349.842 569.532C349.799 569.453 349.692 569.446 349.606 569.439C348.375 569.425 347.145 569.41 345.907 569.396C345.206 569.389 344.512 569.382 343.811 569.375C343.138 569.367 342.466 569.36 341.793 569.382C341.12 569.403 340.412 569.425 339.761 569.568C339.639 569.596 339.539 569.654 339.418 569.675C339.225 569.718 339.017 569.725 338.824 569.732Z" fill="#262E33"/>
<path d="M342.988 573.188C343.51 573.188 344.025 573.188 344.548 573.188C344.176 573.26 343.803 573.324 343.424 573.381C343.846 573.381 344.261 573.389 344.684 573.389C344.548 573.496 344.39 573.589 344.226 573.646C344.455 573.668 344.684 573.66 344.905 573.61C344.726 573.66 344.555 573.746 344.397 573.854C344.433 573.846 344.469 573.832 344.505 573.825C344.376 573.968 344.247 574.111 344.118 574.254C344.626 574.011 345.177 573.861 345.742 573.803C345.585 573.911 345.449 574.032 345.32 574.168C345.642 574.133 345.957 574.083 346.272 573.997C346.15 574.097 346.021 574.204 345.9 574.304C346.114 574.304 346.322 574.311 346.537 574.311C346.415 574.39 346.315 574.497 346.236 574.619C346.744 574.562 347.245 574.469 347.731 574.326C347.531 574.648 347.195 574.884 346.816 574.97C347.173 575.02 347.545 574.941 347.86 574.762C347.803 574.877 347.731 574.977 347.638 575.07C347.817 575.041 347.989 574.991 348.153 574.92C348.075 575.013 347.996 575.113 347.925 575.206C348.075 575.12 348.225 575.041 348.375 574.955C348.311 575.041 348.268 575.134 348.239 575.242C348.375 575.113 348.576 575.098 348.762 575.077C349.019 575.041 349.27 574.97 349.499 574.855C349.513 574.927 349.491 575.013 349.441 575.07C349.685 575.02 349.906 574.905 350.092 574.748C350.1 574.784 350.114 574.812 350.121 574.848C350.235 574.834 350.336 574.776 350.414 574.698C350.422 574.827 350.421 574.955 350.429 575.084C350.45 575.056 350.472 575.027 350.493 574.998C350.493 575.077 350.522 575.156 350.579 575.22C350.722 574.927 350.858 574.626 350.98 574.326C350.994 574.297 351.001 574.269 350.994 574.24C350.987 574.211 350.958 574.183 350.929 574.168C350.758 574.054 350.55 574.004 350.343 573.954C349.856 573.846 349.355 573.775 348.855 573.746C348.533 573.725 348.218 573.725 347.896 573.689C347.631 573.66 347.367 573.61 347.109 573.56C346.794 573.503 346.472 573.439 346.157 573.381C345.728 573.303 345.292 573.217 344.877 573.074C344.569 572.966 344.311 572.866 343.997 572.995C343.725 573.102 343.296 573.188 342.988 573.188Z" fill="#262E33"/>
<path d="M356.095 576.143C356.038 575.993 355.966 575.85 355.895 575.707C356.245 575.842 356.617 575.914 356.997 575.914C356.854 575.807 356.689 575.735 356.517 575.685C356.818 575.678 357.118 575.671 357.419 575.664C357.476 575.664 357.555 575.649 357.562 575.592C357.412 575.506 357.254 575.435 357.09 575.37C357.354 575.349 357.626 575.377 357.898 575.37C358.17 575.363 358.442 575.32 358.664 575.17C358.37 575.184 358.077 575.163 357.798 575.098C357.97 575.013 358.163 574.984 358.356 574.948C358.778 574.869 359.215 574.726 359.465 574.39C359.193 574.426 358.914 574.447 358.635 574.447C358.771 574.319 358.957 574.24 359.143 574.218C358.792 574.211 358.435 574.211 358.084 574.204C358.191 574.104 358.306 574.004 358.413 573.904C357.49 574.175 356.539 574.361 355.58 574.447C355.408 574.462 355.229 574.476 355.072 574.555C354.135 574.998 355.652 575.986 356.095 576.143Z" fill="#262E33"/>
<path d="M355.301 571.349C355.229 571.171 355.179 570.985 355.136 570.791C355.237 570.999 355.394 571.178 355.58 571.321C355.544 571.206 355.516 571.099 355.48 570.985C355.559 571.078 355.644 571.178 355.723 571.271C355.723 571.213 355.73 571.149 355.73 571.092C355.895 571.557 356.288 571.943 356.768 572.101C356.682 572 356.617 571.872 356.589 571.743C356.725 572.058 356.982 572.315 357.304 572.444C357.09 572.115 356.918 571.757 356.803 571.385C356.861 571.493 356.954 571.586 357.054 571.65C357.061 571.586 357.061 571.521 357.068 571.457C357.29 571.793 357.555 572.101 357.862 572.373C357.691 572.129 357.555 571.865 357.462 571.586C357.626 571.707 357.791 571.829 357.955 571.95C357.941 571.886 357.92 571.822 357.905 571.75C358.098 571.886 358.284 572.015 358.478 572.151C358.47 572.058 358.428 571.965 358.363 571.9C358.699 572.244 359.086 572.544 359.494 572.795C359.358 572.673 359.265 572.508 359.229 572.33C359.443 572.48 359.658 572.63 359.866 572.773C359.773 572.666 359.73 572.53 359.73 572.394C360.173 572.795 360.681 573.124 361.225 573.381C361.01 573.224 360.831 573.024 360.688 572.802C361.068 572.916 361.447 573.031 361.826 573.145C361.654 573.016 361.49 572.895 361.318 572.766C361.955 572.974 362.606 573.131 363.264 573.253C363.128 573.088 362.964 572.945 362.777 572.83C363.436 573.088 364.151 573.224 364.86 573.224C364.595 573.095 364.33 572.966 364.065 572.838C364.659 572.881 365.282 572.909 365.825 572.673C365.096 572.444 364.452 572.008 363.722 571.779C363.25 571.628 362.749 571.564 362.255 571.5C360.281 571.235 358.32 570.906 356.367 570.519C355.945 570.434 355.508 570.341 355.179 570.069C355.022 569.94 354.9 569.783 354.757 569.647C354.636 569.539 354.385 569.317 354.385 569.582C354.378 569.997 354.564 570.448 354.793 570.784C354.936 571.013 355.108 571.199 355.301 571.349Z" fill="#262E33"/>
<path d="M367.271 571.17C366.956 571.292 366.641 571.406 366.326 571.528C366.519 571.528 366.713 571.521 366.906 571.521C366.605 571.743 366.162 571.628 365.811 571.757C366.076 571.814 366.355 571.843 366.627 571.85C366.305 571.95 365.933 571.829 365.618 571.957C365.761 571.986 365.904 572.015 366.047 572.043C365.325 572.329 364.473 572.308 363.765 571.986C363.679 571.95 363.6 571.907 363.543 571.829C363.421 571.664 363.529 571.414 363.7 571.306C363.872 571.199 364.094 571.185 364.301 571.185C364.781 571.17 365.246 571.149 365.725 571.192C365.983 571.22 366.247 571.228 366.505 571.22C366.741 571.22 367.049 571.242 367.271 571.17Z" fill="#262E33"/>
<path d="M354.128 566.656C354.485 566.684 354.85 566.606 355.201 566.692C355.344 566.727 355.48 566.799 355.616 566.856C355.888 566.978 356.167 567.085 356.446 567.192C357.075 567.429 357.698 567.665 358.356 567.801C358.621 567.858 358.885 567.894 359.157 567.929C359.808 568.022 360.452 568.108 361.103 568.201C361.518 568.259 361.955 568.316 362.348 568.187C361.998 568.437 361.54 568.437 361.11 568.43C361.404 568.452 361.697 568.466 361.998 568.487C361.475 568.631 360.932 568.681 360.395 568.645C360.624 568.724 360.853 568.802 361.082 568.874C360.488 568.917 359.887 568.809 359.35 568.552C359.551 568.659 359.751 568.766 359.951 568.874C359.558 568.852 359.164 568.731 358.835 568.516C359.279 568.96 359.951 569.181 360.581 569.088C360.331 569.16 360.073 569.224 359.823 569.296C360.116 569.346 360.417 569.36 360.71 569.339C360.588 569.375 360.459 569.418 360.331 569.453C360.588 569.468 360.846 569.482 361.103 569.489C360.109 570.019 358.907 570.169 357.805 569.904C357.211 569.761 356.646 569.511 356.066 569.325C355.594 569.174 355.072 569.053 354.757 568.673C354.478 568.344 354.428 567.886 354.385 567.457C354.364 567.257 354.349 567.057 354.328 566.856" fill="#262E33"/>
<path d="M362.119 566.212C362.377 566.241 362.642 566.27 362.899 566.298C362.527 566.348 362.155 566.37 361.783 566.348C362.076 566.542 362.448 566.577 362.799 566.613C362.091 566.635 361.382 566.635 360.674 566.613C360.932 566.792 361.203 566.949 361.49 567.078C360.889 567.028 360.309 566.828 359.737 566.635C359.93 566.871 360.13 567.114 360.323 567.35C359.744 567.157 359.157 566.985 358.571 566.828C358.699 567.042 358.821 567.257 358.95 567.464C358.521 567.343 358.113 567.135 357.755 566.863C357.898 567.071 358.041 567.278 358.199 567.486C358.106 567.486 358.02 567.436 357.941 567.386C357.583 567.157 357.204 566.971 356.811 566.828C356.954 566.949 357.061 567.114 357.104 567.293C356.796 567.135 356.532 566.921 356.31 566.656C356.217 566.542 356.131 566.406 356.152 566.263C356.174 566.155 356.252 566.062 356.353 566.005C356.453 565.948 356.567 565.926 356.675 565.905C357.369 565.783 358.077 565.84 358.771 565.948C359.071 565.998 359.365 566.055 359.672 566.084C359.894 566.105 360.116 566.112 360.345 566.127C360.774 566.141 361.203 566.162 361.64 566.141C361.897 566.134 362.162 566.112 362.413 566.169" fill="#262E33"/>
<path d="M12.3591 358.698C12.3591 358.698 6.53522 453.555 2.92215 469.038C-0.69093 484.521 -5.49884 539.554 -5.49884 539.554L17.6392 539.604C17.6392 539.604 11.9942 477.91 12.5809 461.318C13.1675 444.726 12.7096 403.512 12.7096 403.512L12.3591 358.698Z" fill="#262E33"/>
<path d="M11.8153 367.275C11.8153 367.275 8.33099 359.591 5.03271 355.745C5.03271 355.745 12.2374 360.837 11.8153 367.275Z" fill="#262E33"/>
<path d="M10.3343 350.258C10.3343 350.258 6.46368 356.681 11.8153 367.274L12.402 364.063C12.402 364.063 9.72617 356.069 10.3343 350.258Z" fill="#262E33"/>
<path d="M14.949 355.767C14.949 355.767 13.9832 361.348 11.8439 362.19L11.8153 367.267C11.8153 367.275 15.7647 360.124 14.949 355.767Z" fill="#262E33"/>
<path d="M18.4619 356.919C18.4619 356.919 16.938 364.207 12.4234 366.1L11.8296 370.594C11.8296 370.594 18.4405 365.834 18.4619 356.919Z" fill="#262E33"/>
<path d="M-0.862671 358.741C-0.862671 358.741 6.35633 368.297 12.4449 369.557L11.801 373.288C11.801 373.288 1.48404 373.684 -0.862671 358.741Z" fill="#262E33"/>
<path d="M27.0046 368.657C27.0046 368.657 17.0812 375.275 12.3376 370.184L12.4306 376.824C12.4306 376.816 23.8709 384.313 27.0046 368.657Z" fill="#262E33"/>
<path d="M1.37671 374.721C1.37671 374.721 6.67111 377.313 11.5219 371.833L11.7938 378.595C11.7938 378.595 6.32054 381.267 1.37671 374.721Z" fill="#262E33"/>
<path d="M26.146 384.212C26.146 384.212 17.446 388.065 11.7939 378.595L12.309 384.968C12.3019 384.968 18.7982 391.457 26.146 384.212Z" fill="#262E33"/>
<path d="M-2.23633 374.296C-2.23633 374.296 3.04378 382.189 11.7867 380.237L10.7135 383.859C10.7207 383.867 -2.98756 386.639 -2.23633 374.296Z" fill="#262E33"/>
<path d="M-2.29358 387.597C-2.29358 387.597 4.77518 391.111 10.7207 383.866L10.6276 390.096C10.6276 390.088 4.68216 396.656 -2.29358 387.597Z" fill="#262E33"/>
<path d="M26.1389 385.357C26.1389 385.357 15.1565 394.359 11.7653 388.85V395.9C11.7724 395.9 27.763 395.518 26.1389 385.357Z" fill="#262E33"/>
<path d="M22.397 397.067C22.397 397.067 13.4323 396.944 11.7724 393.934L11.7438 398.082C11.7509 398.082 18.6694 401.107 22.397 397.067Z" fill="#262E33"/>
<path d="M0.639837 388.375C0.639837 388.375 2.91501 399.717 10.2127 403.577L9.66895 406.897C9.66895 406.889 -10.3711 406.969 0.639837 388.375Z" fill="#262E33"/>
<path d="M10.6133 394.863C10.6133 394.863 1.21214 401.582 -9.00464 395.857C-9.00464 395.857 -7.76688 410.173 10.6777 400.567L10.6133 394.863Z" fill="#262E33"/>
<path d="M30.6748 391.377C30.6748 391.377 25.6022 401.956 12.2732 400.048L11.7509 404.297C11.7509 404.304 33.5224 410.886 30.6748 391.377Z" fill="#262E33"/>
<path d="M-14.2775 401.863C-14.2775 401.863 -8.52522 409.251 9.84781 405.838L9.83351 411.772C9.83351 411.765 -13.4905 418.455 -14.2775 401.863Z" fill="#262E33"/>
<path d="M28.4713 407.559C28.4713 407.559 21.8175 413.947 11.9441 402.734L11.9298 408.762C11.9298 408.762 24.7222 418.757 28.4713 407.559Z" fill="#262E33"/>
<path d="M38.273 409.547C38.273 409.547 24.6936 417.519 11.2143 407.79L11.708 414.156C11.7151 414.156 30.4817 429.761 38.273 409.547Z" fill="#262E33"/>
<path d="M1.2981 410.814C1.2981 410.814 8.06636 423.481 11.9012 422.25C11.9012 422.25 11.6723 428.789 7.39384 428.573C3.11538 428.357 -0.476247 419.838 1.2981 410.814Z" fill="#262E33"/>
<path d="M31.8411 424.785C31.8411 424.785 24.2644 432.13 11.9084 420.594L10.6205 428.587C10.6205 428.58 23.1268 440.527 31.8411 424.785Z" fill="#262E33"/>
<path d="M-7.17297 410.792C-7.17297 410.792 -1.46359 420.025 9.068 411.959L9.05367 417.569C9.05367 417.576 -6.34304 425.217 -7.17297 410.792Z" fill="#262E33"/>
<path d="M-15.9803 421.767C-15.9803 421.767 -8.12459 430.416 8.09491 419.859L9.02502 428.573C9.02502 428.58 -11.2583 435.58 -15.9803 421.767Z" fill="#262E33"/>
<path d="M-27.5565 426.657C-27.5565 426.657 -3.26656 442.738 8.50993 428.458L8.04488 440.599C8.04488 440.599 -21.8185 446.728 -27.5565 426.657Z" fill="#262E33"/>
<path d="M40.7128 428.227C40.7128 428.227 37.4503 447.102 11.8726 434.132C11.8726 434.132 7.08613 445.993 11.8368 450.883C11.8368 450.875 42.8234 454.786 40.7128 428.227Z" fill="#262E33"/>
<path d="M-12.1955 441.456C-12.1955 441.456 -3.43828 451.84 7.20778 449.133L5.74823 456.565C5.74108 456.565 -12.8609 460.403 -12.1955 441.456Z" fill="#262E33"/>
<path d="M6.3134 442.255C6.3134 442.255 -11.8164 455.981 -31.6418 450.969C-31.6418 450.969 -18.9781 468.08 7.70856 452.136L6.3134 442.255Z" fill="#262E33"/>
<path d="M10.5847 443.3C10.5847 443.3 27.7343 458.17 45.2059 451.984C45.2059 451.984 35.5042 469.016 10.1053 453.432L10.5847 443.3Z" fill="#262E33"/>
<path d="M5.89133 455.809C5.89133 455.809 -15.4723 473.322 -42.3021 463.406C-42.3021 463.406 -16.6242 486.047 5.86271 467.561L5.89133 455.809Z" fill="#262E33"/>
<path d="M10.1053 454.087C10.1053 454.087 23.6777 470.507 34.9605 460.886C34.9605 460.886 27.9203 480.373 10.5275 469.959L10.1053 454.087Z" fill="#262E33"/>
<path d="M51.9885 468.18C51.9885 468.18 34.7172 472.422 9.70471 459.956L10.0696 472.444C10.0624 472.444 38.4233 482.468 51.9885 468.18Z" fill="#262E33"/>
<path d="M-53.2916 481.532C-53.2916 481.532 -18.6061 491.686 3.75208 467.871L1.74161 487.876C1.74161 487.884 -44.0407 499.917 -53.2916 481.532Z" fill="#262E33"/>
<path d="M64.4375 489.785C64.4375 489.785 33.8801 493.76 10.5203 471.407L10.4846 486.962C10.4917 486.969 46.6296 509.761 64.4375 489.785Z" fill="#262E33"/>
<path d="M1.53419 488.92C1.53419 488.92 -17.2967 504.331 -34.3247 496.1C-34.3247 496.1 -23.557 514.701 2.01353 504.792L1.53419 488.92Z" fill="#262E33"/>
<path d="M8.3668 493.602C8.3668 493.602 13.2105 505.642 30.7607 500.702C30.7607 500.702 24.944 516.66 10.4416 508.336C-4.06792 500.004 8.3668 493.602 8.3668 493.602Z" fill="#262E33"/>
<path d="M8.27379 362.954C7.22922 361.881 6.40644 360.505 5.05422 359.864C5.11861 360.577 5.39765 361.269 5.84839 361.816C5.42627 361.636 5.00414 361.456 4.58917 361.283C4.71796 361.938 5.21163 362.471 5.784 362.802C6.35637 363.134 7.01459 363.299 7.65851 363.451C7.0289 363.494 6.39214 363.436 5.77684 363.285C6.60677 363.839 7.46532 364.336 8.35964 364.783C7.98045 364.804 7.60842 364.891 7.25785 365.035C7.81591 365.438 8.47413 365.69 9.15382 365.762C9.08227 365.899 8.91055 365.913 8.76746 365.964C8.62437 366.007 8.48128 366.18 8.57429 366.295C8.61722 366.346 8.68161 366.36 8.746 366.374C9.36129 366.49 12.538 367.311 11.6222 365.647C11.3002 365.071 10.5776 364.768 10.0553 364.416C9.41139 363.976 8.80323 363.501 8.27379 362.954Z" fill="#262E33"/>
<path d="M19.5924 359.295C19.0987 360.584 18.5693 361.866 18.0184 363.134C18.4906 362.954 18.9556 362.752 19.3992 362.514C18.7052 363.292 17.9755 364.041 17.2028 364.74C17.8109 364.812 18.4262 364.826 19.0343 364.797C18.2473 365.294 17.4746 365.82 16.7234 366.36C17.1097 366.389 17.4961 366.418 17.8825 366.446C17.3602 366.785 16.8164 367.087 16.2584 367.347C16.5732 367.447 16.8951 367.541 17.2099 367.642C16.3657 368.038 15.4642 368.326 14.5484 368.506C15.0063 368.592 15.4642 368.672 15.9221 368.758C14.8918 369.219 13.7256 369.37 12.6095 369.205C13.6898 367.325 14.7487 365.042 16.2297 363.451C17.5032 362.082 18.8984 361.117 19.5924 359.295Z" fill="#262E33"/>
<path d="M28.7933 373.237C26.8758 374.065 24.8296 374.591 22.7476 374.8C23.2699 375.57 24.0927 376.125 25.0013 376.319C24.3645 376.42 23.7135 376.471 23.0696 376.463C23.3558 376.773 23.6419 377.083 23.9281 377.4C23.0624 377.436 22.1896 377.4 21.3238 377.299C21.61 377.976 22.0894 378.573 22.6904 378.998C22.1323 379.106 21.5599 378.919 21.0162 378.732C20.3007 378.487 19.5924 378.242 18.877 377.997C19.0272 378.573 19.1775 379.142 19.3277 379.718C18.5407 379.445 17.7823 379.07 17.0812 378.624C17.4818 379.207 17.8825 379.798 18.2831 380.381C17.3817 380.323 16.5446 379.848 15.9078 379.207C15.271 378.566 14.7988 377.781 14.3767 376.982C16.1654 377.068 18.0971 376.975 19.528 375.887C20.6227 375.052 21.4097 373.453 22.8835 373.324C24.8224 373.144 26.8401 373.266 28.7933 373.237Z" fill="#262E33"/>
<path d="M-0.998535 364.25C-0.590722 365.15 0.00311971 365.971 0.73289 366.641C0.310768 366.641 -0.111369 366.569 -0.512027 366.432C0.224898 368.038 1.95632 368.923 3.6305 369.5C2.52869 369.687 1.39825 369.651 0.310749 369.399C1.6272 370.493 3.29423 371.163 4.99703 371.278C4.47474 371.494 3.91667 371.617 3.35146 371.631C4.26725 371.984 5.23312 372.193 6.2133 372.258C6.02728 372.409 5.84126 372.567 5.65524 372.719C6.24192 372.848 6.84291 372.913 7.44389 372.92C8.3096 372.927 9.34703 372.683 9.64753 371.869C9.8407 371.336 9.64038 370.724 9.27549 370.292C8.91776 369.86 8.41694 369.564 7.93042 369.284C6.49235 368.448 5.04711 367.404 3.51602 366.749C2.72901 366.417 1.95632 366.158 1.21224 365.726C0.68995 365.416 -0.72666 364.79 -0.998535 364.25Z" fill="#262E33"/>
<path d="M-1.15601 382.758C-0.211597 383.161 0.818668 383.362 1.84178 383.355C1.41966 383.6 1.00468 383.845 0.582559 384.09C1.5842 384.104 2.58587 384.119 3.59467 384.14C3.35141 384.32 3.10814 384.493 2.86488 384.673C3.60181 384.687 4.33159 384.695 5.06851 384.709C4.51045 385.141 3.91661 385.53 3.287 385.861C4.63207 385.84 5.97713 385.53 7.20057 384.961C6.7856 385.408 6.40643 385.883 6.05585 386.387C7.31506 385.991 8.40255 385.055 8.97492 383.859C9.05362 383.686 9.12516 383.478 9.01069 383.326C8.9463 383.24 8.83183 383.197 8.73167 383.161C6.98594 382.585 5.18298 382.174 3.36571 381.944C1.84894 381.735 0.324998 382.441 -1.15601 382.758Z" fill="#262E33"/>
<path d="M15.5572 389.217C15.5429 389.138 15.5286 389.066 15.5143 388.987C15.5572 389.037 15.6001 389.087 15.6502 389.138C15.5715 388.756 15.4928 388.374 15.4141 388C15.7575 388.029 16.008 388.331 16.2727 388.547C16.5946 388.807 17.0024 388.958 17.4174 388.972C17.2815 388.713 17.1026 388.475 16.8951 388.266C17.6535 388.346 18.4047 388.432 19.1631 388.511C18.9413 388.396 18.7339 388.252 18.5478 388.094C19.0415 388.094 19.5423 388.086 20.036 388.086C20.0575 387.863 19.8214 387.719 19.6139 387.626C18.7696 387.237 17.9111 386.862 17.0525 386.495C16.3728 386.207 15.4284 385.595 14.67 385.638C12.7454 385.732 15.4213 388.468 15.5572 389.217Z" fill="#262E33"/>
<path d="M3.27991 393.056C4.26724 392.796 5.20449 392.328 6.02011 391.702C5.89848 392.256 5.69816 392.789 5.44059 393.293C5.56937 393.408 5.76971 393.322 5.9128 393.236C6.6855 392.775 7.4081 392.235 8.07348 391.622C7.73006 392.443 7.3795 393.264 7.03608 394.093C8.3096 393.372 9.18246 391.975 9.26831 390.506C9.27547 390.42 9.27545 390.333 9.23252 390.261C9.16098 390.139 8.99642 390.11 8.85333 390.096C7.8016 389.988 6.64256 389.894 5.7697 390.499C5.36188 390.78 4.75375 391.061 4.43179 391.421C4.10268 391.781 3.82366 392.911 3.27991 393.056Z" fill="#262E33"/>
<path d="M26.9402 388.67C26.84 389.339 26.3392 389.937 25.7024 390.153C26.282 390.16 26.8615 390.168 27.441 390.182C26.6254 390.6 25.7811 390.96 24.9083 391.248C25.638 391.277 26.375 391.305 27.1047 391.334C26.332 392.04 25.3447 392.515 24.3144 392.674C24.8654 392.702 25.4163 392.724 25.9672 392.753C25.0728 393.624 23.6991 393.689 22.4542 393.703C22.7905 393.883 23.1625 393.992 23.5417 394.006C22.6975 394.143 21.8461 394.208 20.9947 394.2C21.5027 394.546 22.0536 394.827 22.6331 395.036C21.5313 395.043 20.4223 395.057 19.3205 395.065C19.7713 395.309 20.222 395.554 20.6728 395.799C19.4851 395.842 18.2903 395.842 17.0955 395.799C16.6876 395.785 16.2655 395.763 15.8935 395.597C15.5214 395.432 15.1995 395.079 15.1852 394.668C15.178 394.388 15.3068 394.121 15.4713 393.891C16.4014 392.544 18.1472 392.119 19.6926 391.586C20.9947 391.133 22.3183 390.549 23.4702 389.764C24.5076 389.051 25.7668 389.159 26.9402 388.67Z" fill="#262E33"/>
<path d="M32.0844 392.911C31.8769 394.049 31.5334 395.165 31.0541 396.224C31.4977 396.058 31.8983 395.792 32.2275 395.446C32.3705 395.453 32.3133 395.677 32.2203 395.778C31.7552 396.274 31.2759 396.75 30.7822 397.211C31.4977 396.937 32.206 396.627 32.8928 396.289C32.3276 397.333 31.4333 398.204 30.3816 398.752C31.14 398.701 31.8983 398.593 32.6353 398.42C32.0486 398.701 31.4619 398.975 30.8752 399.256C32.1845 399.263 33.4867 399.277 34.796 399.285C33.3293 399.962 31.7982 400.487 30.2242 400.869C31.2759 400.876 32.3276 400.883 33.3722 400.898C32.3062 401.272 31.1829 401.467 30.0524 401.481C31.2043 401.719 32.3777 401.819 33.5511 401.783C32.0557 402.568 30.3243 402.763 28.643 402.943C29.5087 403.037 30.3672 403.13 31.233 403.224C31.0326 403.461 30.6821 403.49 30.3744 403.497C29.0365 403.548 27.6986 403.591 26.3607 403.641C27.0833 404.052 27.856 404.369 28.6501 404.599C27.5269 404.599 26.4107 404.606 25.2875 404.606C25.7311 404.837 26.1746 405.075 26.6111 405.305C25.2302 405.319 23.8494 405.334 22.4686 405.341C22.8978 405.6 23.32 405.852 23.7492 406.112C22.8549 406.198 21.9463 406.169 21.0591 406.04C21.4741 406.14 21.8676 406.349 22.1752 406.652C21.238 406.745 20.265 406.536 19.4422 406.083C19.6497 406.068 19.8571 406.169 19.9716 406.342C19.4922 406.558 18.9342 406.342 18.462 406.104C17.6821 405.715 16.938 405.262 16.2297 404.75C16.4515 404.448 16.8379 404.326 17.1956 404.218C18.8555 403.699 20.4796 403.073 22.0608 402.345C23.7278 401.575 25.359 400.682 26.7542 399.493C27.7988 398.608 28.7074 397.549 29.3584 396.332C29.6661 395.756 29.8163 395.259 30.2742 394.791C30.8895 394.164 31.4834 393.531 32.0844 392.911Z" fill="#262E33"/>
<path d="M-2.95179 390.031C-2.73 391.442 -2.04315 392.774 -1.02004 393.768C-1.67826 393.811 -2.33648 393.804 -2.98755 393.747C-2.85162 394.359 -2.54397 394.935 -2.11469 395.389C-2.59405 395.41 -3.07342 395.353 -3.53131 395.23C-3.05195 395.756 -2.6799 396.375 -2.4438 397.052C-2.67274 396.786 -3.15927 397.074 -3.17358 397.427C-3.18789 397.779 -2.91601 398.075 -2.63698 398.291C-2.16478 398.658 -1.60671 398.939 -1.01287 398.989C-0.834009 399.004 -0.640842 399.004 -0.483441 398.91C-0.204411 398.752 -0.125705 398.392 -0.0756228 398.075C0.14617 396.706 0.375119 395.338 0.596912 393.97C0.790087 392.796 0.410885 392.508 -0.461978 391.81C-1.26329 391.169 -2.09324 390.578 -2.95179 390.031Z" fill="#262E33"/>
<path d="M-6.59348 416.582C-7.42341 416.388 -8.18894 415.985 -8.94733 415.574C-8.16747 416.777 -6.68649 417.259 -5.31996 417.663C-5.89948 417.72 -6.47185 417.857 -7.0156 418.066C-6.0855 418.39 -5.1053 418.57 -4.11797 418.584C-4.74757 418.872 -5.37718 419.153 -5.99963 419.441C-5.26986 419.449 -4.54009 419.456 -3.81032 419.463C-4.11797 419.607 -4.37555 419.859 -4.51864 420.169C-3.45261 420.27 -2.37225 420.176 -1.33483 419.902C-1.82135 420.118 -2.21485 420.536 -2.40803 421.033C-1.38492 421.062 -0.354655 420.759 0.496743 420.183C0.875937 419.931 1.24799 419.557 1.24799 419.096C1.24084 418.707 0.954648 418.368 0.618382 418.181C0.282115 417.994 -0.111395 417.922 -0.483435 417.835C-1.5924 417.576 -2.55112 417.094 -3.55277 416.568C-4.13945 416.258 -4.26823 416.489 -4.89784 416.626C-5.46305 416.748 -6.04257 416.712 -6.59348 416.582Z" fill="#262E33"/>
<path d="M-12.4245 426.542C-13.1328 426.852 -13.8912 427.046 -14.6567 427.132C-12.682 427.327 -10.6859 427.399 -8.70407 427.341C-9.82735 427.651 -10.9506 427.968 -12.0739 428.277C-10.922 428.364 -9.76295 428.407 -8.61106 428.393C-9.35514 428.774 -10.0992 429.156 -10.8433 429.538C-9.52687 429.754 -8.16749 429.703 -6.87966 429.379C-7.85984 429.811 -8.83287 430.243 -9.81305 430.676C-7.53789 430.892 -5.29134 430.128 -3.13065 429.365C-3.8318 430.049 -4.52579 430.733 -5.22694 431.41C-3.71017 430.956 -2.26493 430.279 -0.948482 429.408C-1.35629 430.207 -1.77126 431.007 -2.17907 431.813C-0.454814 431.028 1.1192 429.898 2.4285 428.522C2.16377 429.415 1.84181 430.294 1.46262 431.151C2.81484 430.935 4.05259 430.049 4.68219 428.825C4.76089 428.674 4.83243 428.508 4.81097 428.342C4.7752 428.025 4.43179 427.838 4.1313 427.723C1.59856 426.772 -1.20605 427.082 -3.90334 427.291C-6.06403 427.457 -8.31772 427.543 -10.3997 426.837C-11.1939 426.564 -11.8235 426.081 -12.5747 425.728C-13.4261 425.332 -14.5065 425.411 -15.4151 425.469C-14.5351 426.031 -13.4333 426.355 -12.4245 426.542Z" fill="#262E33"/>
<path d="M17.5462 433.664C17.5247 433.319 17.446 432.98 17.3101 432.663C18.9199 434.06 21.1521 434.406 23.2627 434.68C22.6689 434.449 22.1251 434.06 21.7101 433.571C23.4416 433.664 25.1801 433.765 26.9116 433.621C26.0816 433.369 25.2445 433.117 24.4146 432.865C26.2962 432.613 28.1207 431.921 29.7019 430.863C29.0722 430.848 28.4426 430.834 27.813 430.812C29.1366 430.416 30.3887 429.775 31.4905 428.926C31.1328 428.854 30.7607 428.875 30.4173 428.983C31.1972 428.342 31.9985 427.68 32.4421 426.772C31.1113 428.018 29.5158 428.969 27.7844 429.545C26.5824 429.941 25.3304 430.157 24.0783 430.337C22.3397 430.589 20.5869 430.769 18.8268 430.798C17.9826 430.812 17.1312 430.784 16.2941 430.661C15.7146 430.575 14.5055 429.948 14.0046 430.136C14.2622 431.583 16.337 433.059 17.5462 433.664Z" fill="#262E33"/>
<path d="M-24.3584 435.169C-21.4822 435.796 -18.5632 436.228 -15.6298 436.466C-17.3612 437.099 -19.3287 436.61 -21.1031 437.114C-18.7349 438.54 -15.7299 437.963 -12.9826 438.244C-14.714 439.022 -16.5313 439.598 -18.3915 439.944C-15.272 440.009 -12.1526 440.066 -9.04754 439.85C-9.98479 440.311 -10.922 440.779 -11.8665 441.24C-9.56267 441.442 -7.21596 441.06 -5.09104 440.145C-5.92098 440.686 -6.69367 441.319 -7.38767 442.025C-5.34145 441.672 -3.35247 440.995 -1.51374 440.03C-2.23635 441.146 -2.95897 442.263 -3.68159 443.379C-1.40642 443.012 0.496712 441.507 2.29252 440.059C1.81316 441.046 1.32663 442.032 0.847273 443.019C1.89185 442.428 2.86489 441.701 3.7306 440.858C3.69483 441.377 3.6662 441.895 3.63043 442.421C4.56053 441.73 5.20445 440.664 5.38331 439.519C5.41193 439.353 5.42624 439.173 5.35469 439.015C5.23306 438.727 4.87533 438.619 4.56768 438.561C1.75592 438.021 -1.1417 438.453 -3.99639 438.309C-6.85108 438.172 -9.63422 437.459 -12.353 436.61C-13.7553 436.17 -15.1433 435.695 -16.5384 435.241C-17.6116 434.888 -18.8708 434.248 -20.0155 434.485C-21.4536 434.773 -22.8845 434.989 -24.3584 435.169Z" fill="#262E33"/>
<path d="M42.3441 432.721C42.4871 433.182 42.1867 433.657 41.9076 434.053C41.4068 434.759 40.8988 435.465 40.398 436.17C40.999 436.127 41.5857 435.962 42.1223 435.695C41.6 436.329 41.0348 436.927 40.4481 437.495C40.999 437.654 41.6143 437.596 42.1294 437.351C41.2852 437.812 40.5053 438.388 39.8113 439.058C40.2692 439.065 40.72 439.073 41.1779 439.08C39.9974 440.232 38.7095 441.276 37.343 442.198C38.1586 442.205 38.9742 442.09 39.7541 441.86C38.2087 443.372 36.3485 444.546 34.3237 445.287C35.2896 445.475 36.2698 445.554 37.25 445.525C35.9765 446.404 34.4382 446.785 32.9357 447.145C33.9016 447.196 34.8746 447.246 35.8405 447.297C34.6886 447.635 33.5081 447.865 32.3133 448.002C33.0216 448.024 33.7299 448.053 34.4382 448.074C33.1432 448.55 31.8411 449.025 30.5461 449.5C31.0541 449.543 31.5549 449.587 32.0629 449.63C30.0024 450.573 27.6414 450.516 25.3733 450.408C25.0514 450.393 24.7151 450.372 24.4432 450.199C24.1714 450.026 23.9996 449.644 24.1713 449.363C24.2572 449.219 24.4075 449.14 24.5577 449.061C26.3964 448.089 28.3783 447.325 29.938 445.957C30.682 445.302 31.3117 444.524 31.9413 443.753C33.315 442.061 34.6815 440.369 36.0552 438.677C36.7492 437.82 37.436 436.963 38.13 436.113C38.6666 435.457 39.239 435.22 39.9473 434.773C40.8273 434.204 41.6429 433.513 42.3441 432.721Z" fill="#262E33"/>
<path d="M14.3981 454.382C14.6485 455.859 15.1637 457.299 15.9078 458.595C16.0938 458.156 16.151 457.659 16.058 457.184C16.5016 458.278 17.2958 459.229 18.2902 459.856C18.1257 459.049 17.9683 458.242 17.8037 457.436C18.1829 458.228 18.7338 458.934 19.4135 459.488C19.5423 458.869 19.5709 458.228 19.5065 457.601C19.8428 458.257 20.1719 458.919 20.5082 459.575C20.73 458.941 20.9446 458.314 21.1664 457.681C21.9463 458.891 23.0051 459.92 24.2429 460.662C24.3073 460.338 24.2858 459.992 24.1857 459.683C25.0084 460.576 26.0172 461.296 27.1333 461.771C26.4966 460.972 26.0172 460.057 25.7096 459.085C26.8901 459.827 28.0706 460.568 29.2583 461.31C29.1009 460.777 28.9435 460.237 28.7932 459.704C29.1152 459.783 29.4228 459.906 29.7162 460.064C29.7734 459.791 29.709 459.495 29.5588 459.258C30.5604 459.747 31.562 460.237 32.5565 460.727C32.5136 460.259 32.4707 459.791 32.4278 459.323C33.0216 459.51 33.6154 459.697 34.2021 459.884C34.1234 459.531 33.9374 459.207 33.6798 458.963C35.819 459.74 38.0727 460.208 40.3479 460.352C39.8256 460.072 39.3033 459.791 38.7811 459.503C39.9544 459.474 41.1278 459.323 42.2725 459.042C41.4211 458.919 40.5339 458.79 39.8256 458.3C41.9076 458.415 44.0182 457.81 45.721 456.6C44.7194 456.701 43.7034 456.737 42.6946 456.709C43.081 456.514 43.4745 456.327 43.8608 456.132C43.546 456.068 43.2169 456.053 42.9021 456.089C43.4888 455.758 44.0325 455.355 44.519 454.894C43.9824 454.98 43.453 455.124 42.945 455.326C43.7893 454.865 44.4904 454.152 44.9412 453.302C42.0078 455.088 38.7453 456.32 35.3611 456.917C34.338 457.097 33.3006 457.22 32.2632 457.263C30.3672 457.335 28.4712 457.126 26.5824 456.925C24.064 456.651 21.5027 456.363 19.1631 455.383C17.7751 454.8 16.4372 453.972 14.9347 453.878" fill="#262E33"/>
<path d="M18.9914 513.016C18.7481 512.404 18.4763 511.807 18.1686 511.223C19.5709 511.799 21.0877 512.095 22.6045 512.08C22.0321 511.648 21.3739 511.324 20.6799 511.137C21.889 511.108 23.1053 511.086 24.3144 511.058C24.5577 511.05 24.8653 510.986 24.9011 510.748C24.2858 510.395 23.649 510.093 22.9837 509.833C24.064 509.747 25.1515 509.862 26.239 509.826C27.3265 509.797 28.4426 509.61 29.337 508.998C28.1636 509.063 26.9759 508.962 25.8312 508.696C26.518 508.335 27.3122 508.227 28.0778 508.083C29.7734 507.774 31.5621 507.183 32.5494 505.772C31.4404 505.916 30.3172 505.995 29.1939 506.009C29.7519 505.477 30.496 505.145 31.2615 505.08C29.8378 505.059 28.414 505.037 26.9902 505.023C27.441 504.605 27.8846 504.187 28.3353 503.77C24.6078 504.893 20.7657 505.642 16.8879 506.002C16.1868 506.067 15.457 506.125 14.8203 506.434C11.0856 508.263 17.2027 512.375 18.9914 513.016Z" fill="#262E33"/>
<path d="M15.8148 493.169C15.5429 492.42 15.3282 491.65 15.1637 490.865C15.5787 491.722 16.1868 492.478 16.938 493.061C16.8093 492.6 16.6733 492.132 16.5445 491.671C16.8736 492.067 17.2028 492.471 17.5247 492.867C17.539 492.622 17.5533 492.377 17.5676 492.132C18.2402 494.062 19.8285 495.654 21.7531 496.316C21.3953 495.891 21.1521 495.38 21.0376 494.833C21.5671 496.129 22.626 497.195 23.9138 497.742C23.0552 496.374 22.3755 494.898 21.889 493.356C22.1251 493.803 22.4829 494.185 22.905 494.458C22.9193 494.192 22.9408 493.933 22.9551 493.666C23.8422 495.07 24.9226 496.345 26.1532 497.461C25.4592 496.46 24.9154 495.358 24.5362 494.199C25.2016 494.703 25.867 495.214 26.5252 495.719C26.4608 495.445 26.3964 495.171 26.332 494.898C27.0976 495.452 27.8631 496.007 28.6358 496.561C28.6144 496.172 28.4498 495.798 28.1708 495.524C29.5301 496.95 31.0684 498.203 32.7426 499.247C32.1988 498.743 31.8196 498.059 31.6765 497.324C32.5351 497.944 33.3936 498.563 34.2593 499.182C33.9016 498.75 33.7013 498.181 33.7156 497.613C35.5114 499.262 37.5505 500.651 39.7326 501.724C38.8741 501.069 38.1371 500.248 37.5719 499.326C39.0959 499.802 40.6269 500.277 42.1509 500.752C41.4712 500.227 40.7987 499.708 40.119 499.182C42.6875 500.032 45.3132 500.716 47.9676 501.22C47.4095 500.543 46.7441 499.946 46.0072 499.463C48.6759 500.529 51.5377 501.091 54.4139 501.12C53.3478 500.587 52.2746 500.054 51.2086 499.521C53.6126 499.694 56.131 499.838 58.3346 498.844C55.3941 497.893 52.7898 496.086 49.8492 495.114C47.9318 494.48 45.9214 494.213 43.9252 493.933C35.9621 492.816 28.0277 491.441 20.1505 489.821C18.4548 489.468 16.6805 489.072 15.364 487.941C14.7416 487.408 14.2479 486.746 13.6469 486.184C13.1676 485.737 12.1516 484.801 12.1373 485.917C12.1158 487.646 12.8456 489.489 13.7757 490.908C14.3481 491.779 15.0278 492.543 15.8148 493.169Z" fill="#262E33"/>
<path d="M64.1728 492.529C62.9064 493.018 61.64 493.508 60.3665 493.998C61.1464 493.99 61.9262 493.983 62.7061 493.976C61.4898 494.898 59.7083 494.408 58.2774 494.955C59.3577 495.193 60.4595 495.33 61.5613 495.352C60.252 495.762 58.7567 495.258 57.4904 495.791C58.0699 495.906 58.6494 496.028 59.2218 496.144C56.2884 497.318 52.8756 497.224 50.0066 495.884C49.6704 495.726 49.3341 495.546 49.1195 495.244C48.6401 494.559 49.0551 493.537 49.7634 493.09C50.4645 492.644 51.3517 492.608 52.1816 492.579C54.1277 492.529 55.9879 492.428 57.9196 492.629C58.9642 492.737 60.0231 492.781 61.0748 492.766C62.0264 492.745 63.2713 492.831 64.1728 492.529Z" fill="#262E33"/>
<path d="M11.1213 473.74C12.5666 473.87 14.0547 473.524 15.4499 473.913C16.0294 474.071 16.5732 474.352 17.1169 474.611C18.2116 475.13 19.342 475.562 20.4653 476.001C22.9908 476.981 25.5307 477.96 28.1779 478.522C29.244 478.745 30.3243 478.903 31.3975 479.062C34.0161 479.443 36.6347 479.825 39.2533 480.207C40.9346 480.452 42.6875 480.689 44.2901 480.149C42.8878 481.172 41.0133 481.186 39.2819 481.157C40.4695 481.237 41.6644 481.316 42.852 481.395C40.7486 481.971 38.5521 482.194 36.37 482.043C37.2929 482.367 38.2087 482.684 39.1316 483.008C36.7348 483.188 34.3023 482.713 32.1416 481.661C32.9501 482.115 33.7585 482.562 34.567 483.015C32.9643 482.929 31.3903 482.403 30.0524 481.517C31.8554 483.368 34.5598 484.283 37.1069 483.908C36.0838 484.196 35.0607 484.477 34.0447 484.765C35.2252 484.974 36.4272 485.039 37.622 484.96C37.114 485.118 36.6132 485.269 36.1052 485.428C37.1427 485.485 38.1872 485.536 39.2246 485.593C35.1894 487.768 30.3529 488.38 25.9099 487.293C23.506 486.702 21.2451 485.644 18.8912 484.873C16.981 484.247 14.8775 483.735 13.6111 482.173C12.4879 480.797 12.2804 478.911 12.1158 477.139C12.0371 476.304 11.9584 475.475 11.8797 474.64" fill="#262E33"/>
<path d="M43.4101 471.968C44.4547 472.083 45.5064 472.199 46.5509 472.314C45.0628 472.523 43.546 472.588 42.0435 472.508C43.2312 473.315 44.7265 473.473 46.1503 473.61C43.2956 473.689 40.4338 473.675 37.5791 473.574C38.6165 474.309 39.7183 474.957 40.863 475.511C38.4233 475.295 36.0838 474.467 33.7728 473.646C34.5598 474.64 35.3468 475.627 36.1338 476.62C33.7943 475.828 31.4333 475.094 29.0508 474.431C29.5516 475.317 30.0596 476.203 30.5604 477.081C28.8147 476.57 27.1763 475.713 25.7525 474.575C26.3249 475.446 26.9115 476.303 27.5268 477.146C27.1476 477.16 26.7971 476.93 26.4823 476.721C25.0514 475.785 23.5131 475 21.9105 474.395C22.4828 474.892 22.905 475.569 23.1053 476.311C21.8747 475.663 20.78 474.755 19.9072 473.668C19.528 473.2 19.1774 472.631 19.2776 472.04C19.3491 471.587 19.6854 471.205 20.0861 470.974C20.4867 470.744 20.9446 470.643 21.3953 470.564C24.1928 470.074 27.0689 470.305 29.8736 470.766C31.0827 470.967 32.2847 471.205 33.5009 471.342C34.4024 471.442 35.3039 471.479 36.2054 471.515C37.944 471.587 39.6825 471.659 41.4282 471.594C42.4728 471.558 43.5317 471.471 44.5477 471.709" fill="#262E33"/>
</g>
<defs>
<linearGradient id="paint0_linear" x1="188" y1="1.31287e-06" x2="188" y2="435" gradientUnits="userSpaceOnUse">
<stop stop-color="#AABDC8"/>
<stop offset="0.5" stop-color="#A1B7C8"/>
<stop offset="1" stop-color="#87A7BC"/>
</linearGradient>
<linearGradient id="paint1_linear" x1="262.616" y1="421.55" x2="262.616" y2="344.815" gradientUnits="userSpaceOnUse">
<stop stop-color="#BDBDBD"/>
<stop offset="1" stop-color="#ACACAC" stop-opacity="0"/>
</linearGradient>
<clipPath id="clip0">
<rect width="375" height="812" fill="white"/>
</clipPath>
</defs>
</svg>
