<svg width="375" height="812" viewBox="0 0 375 812" fill="none" xmlns="http://www.w3.org/2000/svg">
<g clip-path="url(#clip0)">
<path opacity="0.46" d="M345.451 287.156C334.023 292.471 325.047 302.808 321.399 314.85C321.013 316.131 320.596 317.553 319.456 318.271C318.585 318.822 317.482 318.822 316.476 319.055C313.944 319.638 311.908 321.937 311.639 324.512C310.222 324.512 308.8 324.512 307.384 324.512C308.027 327.639 303.417 328.822 300.241 328.454C293.411 327.67 286.489 326.431 279.708 327.565C272.927 328.7 266.128 332.838 264.142 339.404C263.7 340.857 263.479 342.445 262.511 343.616C261.714 344.585 260.518 345.118 259.359 345.603C254.24 347.767 249.004 349.637 243.676 351.219C239.752 352.384 235.779 353.383 231.898 354.695C218.846 359.103 207.013 367.043 198 377.441C222.769 389.378 250.825 392.266 278.261 394.277C324.128 397.637 370.141 399.047 416.136 398.501C420.808 398.446 425.535 398.36 430.066 397.202C439.379 394.81 447.079 387.962 452.266 379.875C457.453 371.788 460.402 362.5 462.879 353.23C466.668 339.055 469.506 324.463 468.924 309.804C468.765 305.739 468.28 301.521 466.091 298.087C462.395 292.281 454.951 290.283 448.158 289.124C428.159 285.721 409.57 287.683 389.589 288.321C382.949 288.535 377.498 284.397 370.956 283.459C362.348 282.226 353.342 283.483 345.451 287.156Z" fill="url(#paint0_linear)"/>
<path opacity="0.46" d="M56.3729 309.079C64.4218 318.788 68.178 331.237 71.741 343.328C75.862 341.046 81.5356 342.076 84.5906 345.661C85.4206 346.634 86.1146 347.807 87.2736 348.365C89.7634 349.56 92.3963 347.277 94.7359 345.818C100.975 341.933 109.617 343.829 115.084 348.737C120.55 353.645 123.326 360.893 124.764 368.09C127.132 365.586 130.201 370.251 133.099 372.118C134.537 373.048 136.311 373.234 138.014 373.428C168.8 376.976 198.277 390.999 220.421 412.628C220.328 413.973 218.79 414.66 217.495 415.039C158.999 432.303 96.7964 429.792 35.7962 429.913C-2.72419 429.992 -41.2446 431.187 -79.765 431.201C-81.6109 431.201 -83.607 431.151 -85.088 430.049C-86.3043 429.14 -86.9411 427.674 -87.5135 426.264C-100.893 393.196 -102.488 354.318 -86.3401 322.508C-82.8129 315.561 -78.4414 308.95 -72.6963 303.684C-63.1162 294.899 -50.1664 290.355 -37.2022 289.232C-19.3873 287.694 -2.99606 294.369 14.4469 292.652C30.0225 291.121 46.2849 296.902 56.3729 309.079Z" fill="url(#paint1_linear)"/>
<path opacity="0.46" d="M81.6659 93.7949C101.897 103.291 116.302 121.294 119.28 140.808C134.141 139.664 149.431 146.628 156.582 157.779C158.818 161.266 160.599 165.364 164.708 167.241C169.544 169.451 175.59 167.663 180.921 168.774C190.724 170.806 194.456 181.324 203.141 185.689C211.02 189.643 221.59 187.832 229.391 191.897C235.827 195.251 239.168 202.004 245.903 204.892C252.781 207.857 261.375 205.98 268.5 208.501C274.338 210.567 278.356 215.276 283.985 217.719C288.107 219.497 292.826 219.952 297.416 220.407C344.287 225.105 390.534 234.312 435 247.807C422.271 258.902 408.698 269.897 391.899 275.895C381.394 279.649 370.03 281.292 358.771 282.769C252.755 296.697 144.594 298.74 37.9542 288.845C17.9186 286.99 -2.65014 284.546 -20.1504 276.039C-42.6174 265.11 -57.3613 245.43 -67.6846 225.216C-75.8887 209.145 -81.9345 191.975 -81.9995 174.449C-82.0645 156.923 -75.6547 138.942 -61.5998 126.148C-53.8508 119.095 -44.1386 113.853 -34.3223 109.011C-0.361847 92.2067 43.4799 75.8803 81.6659 93.7949Z" fill="url(#paint2_linear)"/>
<path opacity="0.46" d="M31.1262 197.604C55.4431 204.768 75.3884 222.142 83.4549 243.172C91.2223 241.148 100.369 244.105 104.675 250.043C106.965 253.203 108.266 257.297 112.13 258.972C114.667 260.074 117.686 259.793 120.496 259.445C140.858 256.869 164.355 252.045 179.903 263.662C184.821 267.339 188.724 272.568 195.021 273.963C200.993 275.279 207.134 272.658 213.288 272.478C222.148 272.209 230.28 276.954 239.127 277.494C244.852 277.843 250.511 276.392 256.223 275.92C264.081 275.267 271.979 276.459 279.746 277.64C291.898 279.485 304.05 281.34 316.072 283.724C357.94 292.012 398.078 306.756 434 327.054C411.882 335.691 388.424 341.775 364.445 345.081C331.567 349.624 298.065 348.95 264.771 349.433C161.675 350.94 58.4095 363.704 -44.1922 354.966C-50.9968 354.381 -58.4649 353.414 -62.9015 348.939C-65.7638 346.06 -66.8437 342.202 -67.7024 338.491C-72.4643 318.013 -73.284 297.017 -73.8304 276.133C-74.1817 262.875 -74.4029 249.38 -70.0443 236.661C-58.0095 201.585 -6.6696 186.471 31.1262 197.604Z" fill="url(#paint3_linear)"/>
</g>
<defs>
<linearGradient id="paint0_linear" x1="309.504" y1="298.187" x2="332.643" y2="338.781" gradientUnits="userSpaceOnUse">
<stop stop-color="white" stop-opacity="0.5"/>
<stop offset="1" stop-color="white" stop-opacity="0"/>
</linearGradient>
<linearGradient id="paint1_linear" x1="101.375" y1="286.304" x2="67.9827" y2="365.167" gradientUnits="userSpaceOnUse">
<stop stop-color="white" stop-opacity="0.5"/>
<stop offset="1" stop-color="white" stop-opacity="0"/>
</linearGradient>
<linearGradient id="paint2_linear" x1="216.055" y1="108.017" x2="183.914" y2="215.021" gradientUnits="userSpaceOnUse">
<stop stop-color="white" stop-opacity="0.5"/>
<stop offset="1" stop-color="white" stop-opacity="0"/>
</linearGradient>
<linearGradient id="paint3_linear" x1="199.489" y1="187.908" x2="180.065" y2="324.988" gradientUnits="userSpaceOnUse">
<stop stop-color="white" stop-opacity="0.5"/>
<stop offset="1" stop-color="white" stop-opacity="0"/>
</linearGradient>
<clipPath id="clip0">
<rect width="375" height="812" fill="white"/>
</clipPath>
</defs>
</svg>
